<?xml version="1.0" encoding="UTF-8" standalone="no"?>
<!-- Created with Inkscape (http://www.inkscape.org/) -->

<svg
   width="165.78352mm"
   height="85.543434mm"
   viewBox="0 0 165.78352 85.543434"
   version="1.1"
   id="svg5"
   xml:space="preserve"
   inkscape:version="1.2.2 (1:1.2.2+202212051552+b0a8486541)"
   sodipodi:docname="products.svg"
   xmlns:inkscape="http://www.inkscape.org/namespaces/inkscape"
   xmlns:sodipodi="http://sodipodi.sourceforge.net/DTD/sodipodi-0.dtd"
   xmlns="http://www.w3.org/2000/svg"
   xmlns:svg="http://www.w3.org/2000/svg"><sodipodi:namedview
     id="namedview7"
     pagecolor="#ffffff"
     bordercolor="#666666"
     borderopacity="1.0"
     inkscape:showpageshadow="2"
     inkscape:pageopacity="0.0"
     inkscape:pagecheckerboard="0"
     inkscape:deskcolor="#d1d1d1"
     inkscape:document-units="mm"
     showgrid="false"
     inkscape:zoom="0.85067363"
     inkscape:cx="319.15883"
     inkscape:cy="126.95821"
     inkscape:window-width="1920"
     inkscape:window-height="1159"
     inkscape:window-x="0"
     inkscape:window-y="20"
     inkscape:window-maximized="1"
     inkscape:current-layer="svg5"><inkscape:page
       x="0"
       y="0"
       width="165.78352"
       height="85.543427"
       id="page1281" /><inkscape:page
       x="165.0285"
       y="-91.407799"
       width="141.42136"
       height="100"
       id="page1283" /><inkscape:page
       x="316.44986"
       y="-91.407799"
       width="162.05197"
       height="285.24197"
       id="page1453" /></sodipodi:namedview><defs
     id="defs2"><clipPath
       clipPathUnits="userSpaceOnUse"
       id="clipPath1139"><path
         d="m 94.059,227 h 205.77 v 2 H 94.059 Z"
         id="path1137" /></clipPath><clipPath
       clipPathUnits="userSpaceOnUse"
       id="clipPath1149"><path
         d="m 94.059,179 h 205.77 v 1 H 94.059 Z"
         id="path1147" /></clipPath><clipPath
       clipPathUnits="userSpaceOnUse"
       id="clipPath1159"><path
         d="m 94.059,130 h 205.77 v 2 H 94.059 Z"
         id="path1157" /></clipPath><clipPath
       clipPathUnits="userSpaceOnUse"
       id="clipPath1169"><path
         d="m 94.059,81 h 205.77 v 2 H 94.059 Z"
         id="path1167" /></clipPath><clipPath
       clipPathUnits="userSpaceOnUse"
       id="clipPath1179"><path
         d="m 94.059,33 h 205.77 v 1 H 94.059 Z"
         id="path1177" /></clipPath><clipPath
       clipPathUnits="userSpaceOnUse"
       id="clipPath1189"><path
         d="m 99,27.844 h 2 v 205.77 h -2 z"
         id="path1187" /></clipPath><clipPath
       clipPathUnits="userSpaceOnUse"
       id="clipPath1199"><path
         d="m 148,27.844 h 1 v 205.77 h -1 z"
         id="path1197" /></clipPath><clipPath
       clipPathUnits="userSpaceOnUse"
       id="clipPath1209"><path
         d="m 196,27.844 h 2 v 205.77 h -2 z"
         id="path1207" /></clipPath><clipPath
       clipPathUnits="userSpaceOnUse"
       id="clipPath1219"><path
         d="m 245,27.844 h 1 v 205.77 h -1 z"
         id="path1217" /></clipPath><clipPath
       clipPathUnits="userSpaceOnUse"
       id="clipPath1229"><path
         d="m 293,27.844 h 2 v 205.77 h -2 z"
         id="path1227" /></clipPath><clipPath
       clipPathUnits="userSpaceOnUse"
       id="clipPath1361"><path
         d="m 57.42,222.2352 h 356.004 v 356.004 H 57.42 Z"
         id="path1359" /></clipPath><clipPath
       clipPathUnits="userSpaceOnUse"
       id="clipPath1371"><path
         d="m 57.42,222.2352 h 356.004 v 356.004 H 57.42 Z"
         id="path1369" /></clipPath><clipPath
       clipPathUnits="userSpaceOnUse"
       id="clipPath1381"><path
         d="m 57.42,222.2352 h 356.004 v 356.004 H 57.42 Z"
         id="path1379" /></clipPath><clipPath
       clipPathUnits="userSpaceOnUse"
       id="clipPath1391"><path
         d="m 57.42,222.2352 h 356.004 v 356.004 H 57.42 Z"
         id="path1389" /></clipPath></defs><g
     inkscape:label="Layer 1"
     inkscape:groupmode="layer"
     id="layer1"
     transform="translate(-54.971492,-91.407803)" /><g
     id="g2172"
     transform="matrix(0.97393595,0,0,0.97393595,-53.538712,-86.795737)"><g
       id="g2072"
       transform="translate(-189.03376,83.465121)"><g
         id="g1105"
         transform="matrix(0.35277776,0,0,0.35277778,220,3.5583335e-6)"><text
           xml:space="preserve"
           transform="translate(193.44531,265)"
           style="font-variant:normal;font-weight:normal;font-size:11px;font-family:'DejaVu Sans';-inkscape-font-specification:DejaVuSans;writing-mode:lr-tb;fill:#564a55;fill-opacity:1;fill-rule:nonzero;stroke:none"
           id="text1109"><tspan
             x="0"
             y="0"
             id="tspan1107">x</tspan></text><text
           xml:space="preserve"
           transform="translate(95.726562,243.875)"
           style="font-variant:normal;font-weight:normal;font-size:8px;font-family:'DejaVu Sans';-inkscape-font-specification:DejaVuSans;writing-mode:lr-tb;fill:#6c606b;fill-opacity:1;fill-rule:nonzero;stroke:none"
           id="text1113"><tspan
             x="0 2.9920001 48.599998 51.591999 98.71875 147.31876 195.93359"
             y="0"
             sodipodi:role="line"
             id="tspan1111">-2-1012</tspan></text><text
           xml:space="preserve"
           transform="translate(312.5,130.44531)"
           style="font-variant:normal;font-weight:normal;font-size:8px;font-family:'DejaVu Sans';-inkscape-font-specification:DejaVuSans;writing-mode:lr-tb;fill:#4c404b;fill-opacity:1;fill-rule:nonzero;stroke:none"
           id="text1121"><tspan
             x="0 3"
             y="0"
             sodipodi:role="line"
             id="tspan1115">f1</tspan><tspan
             x="0 3"
             y="9.8359356"
             sodipodi:role="line"
             id="tspan1117">f2</tspan><tspan
             x="0 3 8"
             y="19.667969"
             sodipodi:role="line"
             id="tspan1119">f12</tspan></text><path
           d="m 307.297,147.688 c 0,3.402 -5.102,3.402 -5.102,0 0,-3.399 5.102,-3.399 5.102,0"
           style="fill:#ff0000;fill-opacity:1;fill-rule:nonzero;stroke:#ffffff;stroke-width:0.850394;stroke-linecap:butt;stroke-linejoin:miter;stroke-miterlimit:10;stroke-dasharray:none;stroke-opacity:1"
           id="path1123" /><path
           d="m 307.297,137.855 c 0,3.403 -5.102,3.403 -5.102,0 0,-3.402 5.102,-3.402 5.102,0"
           style="fill:#0000ff;fill-opacity:1;fill-rule:nonzero;stroke:#ffffff;stroke-width:0.850394;stroke-linecap:butt;stroke-linejoin:miter;stroke-miterlimit:10;stroke-dasharray:none;stroke-opacity:1"
           id="path1125" /><path
           d="m 307.297,128.02 c 0,3.402 -5.102,3.402 -5.102,0 0,-3.403 5.102,-3.403 5.102,0"
           style="fill:#00ffff;fill-opacity:1;fill-rule:nonzero;stroke:#ffffff;stroke-width:0.850394;stroke-linecap:butt;stroke-linejoin:miter;stroke-miterlimit:10;stroke-dasharray:none;stroke-opacity:1"
           id="path1127" /><text
           xml:space="preserve"
           transform="translate(302.66406,116.0625)"
           style="font-variant:normal;font-weight:normal;font-size:11px;font-family:'DejaVu Sans';-inkscape-font-specification:DejaVuSans;writing-mode:lr-tb;fill:#362a35;fill-opacity:1;fill-rule:nonzero;stroke:none"
           id="text1131"><tspan
             x="0 5.9949999 12.991 19.965 26.983 33.979"
             y="0"
             sodipodi:role="line"
             id="tspan1129">Legend</tspan></text></g><g
         id="g1133"
         transform="matrix(0.35277776,0,0,0.35277778,220,3.5583335e-6)"><g
           id="g1135"
           clip-path="url(#clipPath1139)"><path
             d="M 94.059,227.945 H 299.828"
             style="fill:none;stroke:#d0d0e0;stroke-width:0.566929;stroke-linecap:butt;stroke-linejoin:miter;stroke-miterlimit:10;stroke-dasharray:1.41732, 1.41732;stroke-dashoffset:0;stroke-opacity:1"
             id="path1141" /></g></g><g
         id="g1143"
         transform="matrix(0.35277776,0,0,0.35277778,220,3.5583335e-6)"><g
           id="g1145"
           clip-path="url(#clipPath1149)"><path
             d="M 94.059,179.336 H 299.828"
             style="fill:none;stroke:#d0d0e0;stroke-width:0.566929;stroke-linecap:butt;stroke-linejoin:miter;stroke-miterlimit:10;stroke-dasharray:1.41732, 1.41732;stroke-dashoffset:0;stroke-opacity:1"
             id="path1151" /></g></g><g
         id="g1153"
         transform="matrix(0.35277776,0,0,0.35277778,220,3.5583335e-6)"><g
           id="g1155"
           clip-path="url(#clipPath1159)"><path
             d="M 94.059,130.727 H 299.828"
             style="fill:none;stroke:#d0d0e0;stroke-width:0.566929;stroke-linecap:butt;stroke-linejoin:miter;stroke-miterlimit:10;stroke-dasharray:1.41732, 1.41732;stroke-dashoffset:0;stroke-opacity:1"
             id="path1161" /></g></g><g
         id="g1163"
         transform="matrix(0.35277776,0,0,0.35277778,220,3.5583335e-6)"><g
           id="g1165"
           clip-path="url(#clipPath1169)"><path
             d="M 94.059,82.121 H 299.828"
             style="fill:none;stroke:#d0d0e0;stroke-width:0.566929;stroke-linecap:butt;stroke-linejoin:miter;stroke-miterlimit:10;stroke-dasharray:1.41732, 1.41732;stroke-dashoffset:0;stroke-opacity:1"
             id="path1171" /></g></g><g
         id="g1173"
         transform="matrix(0.35277776,0,0,0.35277778,220,3.5583335e-6)"><g
           id="g1175"
           clip-path="url(#clipPath1179)"><path
             d="M 94.059,33.512 H 299.828"
             style="fill:none;stroke:#d0d0e0;stroke-width:0.566929;stroke-linecap:butt;stroke-linejoin:miter;stroke-miterlimit:10;stroke-dasharray:1.41732, 1.41732;stroke-dashoffset:0;stroke-opacity:1"
             id="path1181" /></g></g><g
         id="g1183"
         transform="matrix(0.35277776,0,0,0.35277778,220,3.5583335e-6)"><g
           id="g1185"
           clip-path="url(#clipPath1189)"><path
             d="M 99.727,27.844 V 233.613"
             style="fill:none;stroke:#d0d0e0;stroke-width:0.566929;stroke-linecap:butt;stroke-linejoin:miter;stroke-miterlimit:10;stroke-dasharray:1.41732, 1.41732;stroke-dashoffset:0;stroke-opacity:1"
             id="path1191" /></g></g><g
         id="g1193"
         transform="matrix(0.35277776,0,0,0.35277778,220,3.5583335e-6)"><g
           id="g1195"
           clip-path="url(#clipPath1199)"><path
             d="M 148.336,27.844 V 233.613"
             style="fill:none;stroke:#d0d0e0;stroke-width:0.566929;stroke-linecap:butt;stroke-linejoin:miter;stroke-miterlimit:10;stroke-dasharray:1.41732, 1.41732;stroke-dashoffset:0;stroke-opacity:1"
             id="path1201" /></g></g><g
         id="g1203"
         transform="matrix(0.35277776,0,0,0.35277778,220,3.5583335e-6)"><g
           id="g1205"
           clip-path="url(#clipPath1209)"><path
             d="M 196.945,27.844 V 233.613"
             style="fill:none;stroke:#d0d0e0;stroke-width:0.566929;stroke-linecap:butt;stroke-linejoin:miter;stroke-miterlimit:10;stroke-dasharray:1.41732, 1.41732;stroke-dashoffset:0;stroke-opacity:1"
             id="path1211" /></g></g><g
         id="g1213"
         transform="matrix(0.35277776,0,0,0.35277778,220,3.5583335e-6)"><g
           id="g1215"
           clip-path="url(#clipPath1219)"><path
             d="M 245.551,27.844 V 233.613"
             style="fill:none;stroke:#d0d0e0;stroke-width:0.566929;stroke-linecap:butt;stroke-linejoin:miter;stroke-miterlimit:10;stroke-dasharray:1.41732, 1.41732;stroke-dashoffset:0;stroke-opacity:1"
             id="path1221" /></g></g><g
         id="g1223"
         transform="matrix(0.35277776,0,0,0.35277778,220,3.5583335e-6)"><g
           id="g1225"
           clip-path="url(#clipPath1229)"><path
             d="M 294.16,27.844 V 233.613"
             style="fill:none;stroke:#d0d0e0;stroke-width:0.566929;stroke-linecap:butt;stroke-linejoin:miter;stroke-miterlimit:10;stroke-dasharray:1.41732, 1.41732;stroke-dashoffset:0;stroke-opacity:1"
             id="path1231" /></g></g><g
         id="g1233"
         transform="matrix(0.35277776,0,0,0.35277778,220,3.5583335e-6)"><path
           d="m 143.41,130.727 0.063,0.339 0.062,0.332 0.059,0.336 0.062,0.336 0.055,0.332 0.059,0.332 0.054,0.336 0.055,0.332 0.055,0.328 0.05,0.332 0.047,0.333 0.051,0.332 0.047,0.328 0.086,0.664 0.043,0.328 0.043,0.332 0.039,0.332 0.035,0.328 0.039,0.332 0.035,0.332 0.031,0.332 0.036,0.332 0.062,0.664 0.027,0.332 0.032,0.336 0.027,0.332 0.055,0.672 0.023,0.332 0.028,0.34 0.023,0.336 0.027,0.336 0.071,1.019 0.027,0.34 0.023,0.34 0.024,0.344 0.027,0.34 0.024,0.343 0.054,0.688 0.028,0.348 0.027,0.343 0.125,1.391 0.035,0.348 0.035,0.351 0.039,0.348 0.079,0.703 0.042,0.352 0.047,0.347 0.047,0.356 0.047,0.351 0.051,0.352 0.109,0.703 0.059,0.355 0.058,0.352 0.067,0.351 0.062,0.356 0.141,0.703 0.074,0.356 0.074,0.351 0.246,1.055 0.27,1.055 0.195,0.703 0.102,0.347 0.101,0.352 0.11,0.351 0.105,0.348 0.114,0.348 0.113,0.351 0.113,0.348 0.121,0.348 0.117,0.347 0.122,0.348 0.25,0.695 0.128,0.352 0.129,0.347 0.399,1.043 0.137,0.352 0.136,0.348 0.137,0.351 0.141,0.348 0.281,0.703 0.144,0.355 0.289,0.704 0.145,0.355 0.297,0.711 0.148,0.359 0.149,0.356 0.304,0.719 0.153,0.363 0.156,0.359 0.156,0.363 0.16,0.364 0.157,0.363 0.164,0.363 0.16,0.364 0.168,0.367 0.164,0.363 0.172,0.363 0.172,0.368 0.171,0.363 0.18,0.367 0.36,0.727 0.187,0.363 0.188,0.359 0.191,0.364 0.199,0.355 0.199,0.359 0.204,0.356 0.207,0.351 0.211,0.352 0.437,0.695 0.453,0.68 0.234,0.336 0.243,0.332 0.242,0.328 0.25,0.324 0.254,0.321 0.258,0.316 0.261,0.313 0.27,0.304 0.273,0.301 0.282,0.297 0.281,0.289 0.289,0.285 0.293,0.281 0.301,0.274 0.3,0.269 0.309,0.262 0.312,0.254 0.321,0.254 0.32,0.242 0.324,0.238 0.332,0.235 0.332,0.226 0.34,0.219 0.344,0.215 0.344,0.207 0.351,0.203 0.352,0.195 0.355,0.192 0.36,0.183 0.363,0.18 0.363,0.176 0.367,0.164 0.372,0.164 0.375,0.156 0.75,0.297 0.378,0.141 0.383,0.132 0.383,0.129 0.387,0.125 0.386,0.121 0.387,0.118 0.391,0.109 0.39,0.105 0.391,0.102 0.395,0.094 0.39,0.094 0.395,0.085 0.398,0.083 0.395,0.078 0.398,0.074 0.399,0.07 0.398,0.067 0.797,0.117 0.398,0.051 0.403,0.05 0.398,0.043 0.403,0.043 0.398,0.035 0.402,0.032 0.399,0.027 0.804,0.047 0.399,0.016 0.402,0.011 0.399,0.008 0.398,0.004 0.402,0.004 0.399,-0.004 0.797,-0.016 0.398,-0.011 0.395,-0.02 0.398,-0.019 0.395,-0.02 0.789,-0.055 0.394,-0.031 0.391,-0.035 0.394,-0.035 0.387,-0.039 0.781,-0.086 0.387,-0.043 0.387,-0.047 0.383,-0.047 0.386,-0.051 0.379,-0.051 0.383,-0.05 0.383,-0.055 0.379,-0.051 0.375,-0.054 0.379,-0.055 0.375,-0.055 0.375,-0.058 0.371,-0.055 0.375,-0.055 0.371,-0.055 0.367,-0.054 0.371,-0.055 1.102,-0.164 0.363,-0.051 0.363,-0.054 1.09,-0.153 0.719,-0.101 0.363,-0.047 0.36,-0.051 0.355,-0.047 0.359,-0.051 0.356,-0.046 0.359,-0.047 0.356,-0.051 0.711,-0.094 1.066,-0.152 0.352,-0.051 0.711,-0.102 0.703,-0.109 1.054,-0.176 0.352,-0.062 0.351,-0.067 0.348,-0.062 0.352,-0.07 0.695,-0.141 0.348,-0.074 0.695,-0.157 0.344,-0.082 0.347,-0.086 0.344,-0.085 0.344,-0.09 0.344,-0.094 0.339,-0.094 0.344,-0.097 0.34,-0.098 0.34,-0.106 0.336,-0.101 0.34,-0.11 0.672,-0.218 0.336,-0.114 0.332,-0.117 0.335,-0.117 0.665,-0.242 0.328,-0.125 0.332,-0.125 0.984,-0.387 0.324,-0.133 0.328,-0.136 0.325,-0.133 0.324,-0.137 0.324,-0.141 0.32,-0.136 0.325,-0.141 1.281,-0.578 0.949,-0.445 0.633,-0.305 0.316,-0.156 0.625,-0.313 0.313,-0.16 0.308,-0.16 0.313,-0.16 0.308,-0.164 0.309,-0.168 0.305,-0.168 0.308,-0.168 0.305,-0.172 0.301,-0.176 0.304,-0.176 0.301,-0.175 0.297,-0.184 0.301,-0.18 0.293,-0.187 0.297,-0.188 0.293,-0.187 0.293,-0.192 0.578,-0.39 0.285,-0.199 0.285,-0.204 0.281,-0.203 0.282,-0.207 0.281,-0.211 0.277,-0.211 0.274,-0.211 0.277,-0.218 0.27,-0.215 0.269,-0.223 0.27,-0.219 0.265,-0.226 0.266,-0.223 0.265,-0.226 0.524,-0.461 0.516,-0.461 0.515,-0.469 0.762,-0.703 0.254,-0.238 0.508,-0.469 0.254,-0.238 0.761,-0.703 0.254,-0.231 0.258,-0.234 0.258,-0.231 0.258,-0.226 0.261,-0.231 0.262,-0.226 0.266,-0.227 0.265,-0.223 0.539,-0.445 0.274,-0.219 0.277,-0.218 0.563,-0.43 0.285,-0.211 0.578,-0.422 0.297,-0.207 0.601,-0.414 0.305,-0.203 0.309,-0.203 0.312,-0.203 0.317,-0.2 0.32,-0.199 0.32,-0.203 0.324,-0.199 0.329,-0.199 0.332,-0.2 0.335,-0.203 0.336,-0.199 0.336,-0.203 0.344,-0.203 0.34,-0.203 0.344,-0.203 0.347,-0.208 0.696,-0.421 0.343,-0.211 1.043,-0.657 0.344,-0.226 0.348,-0.231 0.34,-0.23 0.339,-0.238 0.336,-0.239 0.336,-0.246 0.328,-0.246 0.329,-0.254 0.32,-0.258 0.32,-0.265 0.313,-0.266 0.304,-0.273 0.301,-0.281 0.293,-0.282 0.285,-0.289 0.282,-0.297 0.273,-0.297 0.262,-0.304 0.258,-0.313 0.246,-0.316 0.238,-0.32 0.226,-0.329 0.219,-0.332 0.211,-0.336 0.199,-0.339 0.188,-0.348 0.18,-0.352 0.168,-0.359 0.156,-0.359 0.144,-0.368 0.133,-0.367 0.125,-0.375 0.11,-0.379 0.101,-0.382 0.09,-0.383 0.074,-0.391 0.067,-0.391 0.054,-0.394 0.043,-0.398 0.031,-0.399 0.024,-0.402 0.008,-0.407 v -0.402 l -0.012,-0.41 -0.02,-0.406 -0.035,-0.41 -0.039,-0.411 -0.051,-0.414 -0.062,-0.41 -0.07,-0.41 -0.079,-0.414 -0.085,-0.41 -0.094,-0.41 -0.102,-0.41 -0.109,-0.411 -0.117,-0.406 -0.125,-0.41 -0.129,-0.402 -0.133,-0.407 -0.141,-0.402 -0.144,-0.398 -0.149,-0.399 -0.152,-0.398 -0.156,-0.395 -0.156,-0.39 -0.165,-0.391 -0.164,-0.387 -0.164,-0.383 -0.168,-0.382 -0.164,-0.379 -0.168,-0.379 -0.168,-0.375 -0.168,-0.371 -0.168,-0.368 -0.164,-0.367 -0.328,-0.726 -0.16,-0.36 -0.156,-0.355 -0.156,-0.352 -0.153,-0.351 -0.148,-0.352 -0.145,-0.347 -0.144,-0.344 -0.137,-0.344 -0.133,-0.34 -0.129,-0.34 -0.125,-0.336 -0.121,-0.339 -0.113,-0.332 -0.113,-0.336 -0.106,-0.332 -0.101,-0.329 -0.098,-0.332 -0.18,-0.656 -0.082,-0.328 -0.078,-0.328 -0.07,-0.324 -0.071,-0.328 -0.062,-0.325 -0.062,-0.328 -0.055,-0.324 -0.051,-0.328 -0.051,-0.324 -0.086,-0.657 -0.039,-0.324 -0.035,-0.328 -0.094,-0.984 -0.023,-0.332 -0.027,-0.328 -0.024,-0.332 -0.023,-0.329 -0.02,-0.332 -0.023,-0.336 -0.039,-0.664 -0.024,-0.336 -0.019,-0.332 -0.071,-1.007 -0.054,-0.672 -0.063,-0.672 -0.035,-0.336 -0.039,-0.34 -0.039,-0.336 -0.043,-0.336 -0.094,-0.672 -0.055,-0.336 -0.054,-0.332 -0.063,-0.336 -0.062,-0.332 -0.071,-0.336 -0.07,-0.332 -0.074,-0.332 -0.164,-0.656 -0.09,-0.328 -0.187,-0.656 -0.102,-0.324 -0.105,-0.325 -0.219,-0.64 -0.117,-0.321 -0.122,-0.316 -0.124,-0.316 -0.129,-0.317 -0.129,-0.312 -0.137,-0.313 -0.281,-0.617 -0.145,-0.309 -0.148,-0.304 -0.305,-0.61 -0.156,-0.3 -0.16,-0.301 -0.16,-0.297 -0.165,-0.301 -0.168,-0.297 -0.167,-0.293 -0.168,-0.297 -0.344,-0.586 -0.176,-0.289 -0.176,-0.293 -0.351,-0.578 -0.899,-1.445 -0.179,-0.285 -0.899,-1.446 -0.18,-0.292 -0.175,-0.29 -0.18,-0.292 -0.176,-0.293 -0.351,-0.594 -0.172,-0.297 -0.176,-0.297 -0.172,-0.301 -0.172,-0.304 -0.168,-0.301 -0.504,-0.926 -0.164,-0.313 -0.492,-0.949 -0.32,-0.648 -0.321,-0.656 -0.156,-0.332 -0.16,-0.336 -0.156,-0.336 -0.156,-0.34 -0.157,-0.344 -0.156,-0.348 -0.152,-0.347 -0.313,-0.703 -0.156,-0.356 -0.156,-0.359 -0.16,-0.36 -0.157,-0.359 -0.16,-0.367 -0.16,-0.363 -0.164,-0.368 -0.164,-0.371 -0.164,-0.367 -0.168,-0.371 -0.172,-0.371 -0.172,-0.375 -0.352,-0.742 -0.183,-0.375 -0.184,-0.371 -0.187,-0.371 -0.192,-0.372 -0.195,-0.367 -0.199,-0.367 -0.203,-0.363 -0.207,-0.363 -0.211,-0.364 -0.219,-0.355 -0.223,-0.356 -0.222,-0.351 -0.235,-0.348 -0.234,-0.344 -0.242,-0.336 -0.246,-0.336 -0.254,-0.328 -0.258,-0.324 -0.262,-0.32 -0.269,-0.313 -0.274,-0.304 -0.281,-0.301 -0.285,-0.293 -0.289,-0.285 -0.297,-0.282 -0.301,-0.273 -0.308,-0.266 -0.313,-0.257 -0.316,-0.25 -0.321,-0.243 -0.328,-0.234 -0.332,-0.227 -0.336,-0.218 -0.344,-0.207 -0.343,-0.203 -0.352,-0.196 -0.355,-0.183 -0.36,-0.176 -0.363,-0.168 -0.363,-0.16 -0.371,-0.153 -0.375,-0.144 -0.375,-0.133 -0.379,-0.129 -0.383,-0.121 -0.387,-0.109 -0.386,-0.106 -0.391,-0.094 -0.395,-0.089 -0.394,-0.078 -0.395,-0.075 -0.398,-0.066 -0.399,-0.059 -0.402,-0.054 -0.398,-0.047 -0.407,-0.039 -0.402,-0.032 -0.402,-0.027 -0.407,-0.023 -0.406,-0.016 -0.812,-0.016 -0.403,0.004 -0.406,0.004 -0.406,0.008 -0.406,0.016 -0.403,0.019 -0.406,0.024 -0.402,0.027 -0.407,0.031 -0.402,0.035 -0.398,0.036 -0.403,0.042 -0.398,0.043 -0.399,0.047 -0.398,0.051 -0.395,0.051 -0.398,0.055 -0.394,0.058 -0.782,0.117 -0.781,0.125 -0.773,0.133 -0.383,0.067 -0.387,0.07 -0.379,0.066 -0.383,0.071 -0.758,0.14 -0.374,0.071 -0.379,0.07 -0.371,0.07 -0.376,0.07 -0.742,0.141 -0.367,0.066 -0.371,0.067 -0.367,0.066 -0.363,0.067 -0.368,0.066 -0.726,0.125 -0.363,0.059 -0.36,0.058 -0.363,0.059 -0.719,0.109 -0.719,0.102 -0.355,0.047 -0.359,0.047 -0.356,0.043 -0.359,0.043 -0.356,0.039 -0.359,0.035 -0.356,0.035 -0.355,0.031 -0.359,0.031 -0.356,0.028 -0.359,0.027 -0.356,0.024 -0.359,0.023 -0.36,0.019 -0.718,0.032 -0.364,0.011 -0.359,0.012 -0.363,0.012 -0.727,0.016 -0.367,0.003 -0.363,0.004 -0.735,0.008 h -2.601 l -0.379,0.004 h -0.375 l -1.137,0.012 -0.379,0.008 -0.383,0.007 -0.378,0.008 -1.149,0.047 -0.387,0.02 -0.382,0.023 -0.383,0.027 -0.383,0.032 -0.387,0.035 -0.383,0.039 -0.382,0.043 -0.383,0.047 -0.383,0.05 -0.383,0.059 -0.379,0.059 -0.383,0.07 -0.378,0.07 -0.375,0.078 -0.379,0.082 -0.375,0.09 -0.371,0.094 -0.375,0.098 -0.735,0.218 -0.367,0.122 -0.363,0.125 -0.36,0.128 -0.359,0.141 -0.356,0.141 -0.351,0.152 -0.352,0.156 -0.343,0.164 -0.344,0.168 -0.68,0.36 -0.332,0.191 -0.328,0.195 -0.328,0.2 -0.641,0.422 -0.312,0.222 -0.313,0.227 -0.304,0.23 -0.301,0.238 -0.301,0.243 -0.293,0.25 -0.289,0.254 -0.285,0.257 -0.281,0.266 -0.278,0.266 -0.273,0.277 -0.27,0.277 -0.261,0.282 -0.262,0.289 -0.254,0.293 -0.25,0.293 -0.246,0.3 -0.242,0.305 -0.239,0.305 -0.234,0.308 -0.23,0.317 -0.227,0.316 -0.223,0.317 -0.218,0.324 -0.215,0.324 -0.207,0.324 -0.207,0.328 -0.203,0.332 -0.2,0.332 -0.39,0.672 -0.188,0.336 -0.187,0.34 -0.18,0.336 -0.18,0.344 -0.179,0.34 -0.172,0.339 -0.172,0.344 -0.172,0.34 -0.164,0.344 -0.168,0.34 -0.16,0.343 -0.164,0.34 -0.157,0.34 -0.16,0.34 -0.156,0.34 -0.156,0.336 -0.152,0.34 -0.153,0.335 -0.156,0.332 -0.152,0.336 -0.153,0.332 -0.457,0.985 -0.152,0.324 -0.153,0.32 -0.156,0.321 -0.152,0.32 -0.156,0.316 -0.16,0.313 -0.157,0.312 -0.16,0.313 -0.164,0.305 -0.164,0.308 -0.504,0.903 -0.172,0.296 -0.176,0.297 -0.179,0.293 -0.36,0.578 -0.183,0.289 -0.188,0.286 -0.191,0.285 -0.192,0.281 -0.39,0.563 -0.199,0.281 -0.2,0.277 -0.203,0.277 -0.621,0.832 -0.211,0.278 -0.211,0.273 -0.422,0.555 -0.429,0.555 -0.215,0.281 -0.211,0.281 -0.43,0.563 -0.633,0.855 -0.207,0.289 -0.203,0.289 -0.203,0.293 -0.203,0.297 -0.195,0.297 -0.196,0.301 -0.191,0.3 -0.187,0.301 -0.184,0.309 -0.18,0.308 -0.172,0.313 -0.168,0.312 -0.168,0.317 -0.156,0.316 -0.156,0.324 -0.289,0.649 -0.137,0.328 -0.129,0.332 -0.121,0.332 -0.117,0.336 -0.113,0.336 -0.102,0.34 -0.098,0.344 -0.089,0.343 -0.086,0.344 -0.075,0.348 -0.07,0.347 -0.062,0.348 -0.059,0.352 -0.047,0.355 -0.043,0.352 -0.039,0.355 -0.027,0.356 -0.024,0.355 -0.019,0.356 -0.012,0.359 -0.004,0.355 v 0.36 l 0.004,0.355 0.012,0.36 0.015,0.359 0.02,0.355 0.023,0.36 0.063,0.711 0.039,0.359 0.043,0.356 0.043,0.351 0.047,0.356 0.051,0.351 0.05,0.356 0.059,0.351 0.055,0.348 0.058,0.351 0.188,1.043 0.062,0.344 0.067,0.348 0.066,0.344 0.063,0.339 0.066,0.344 0.133,0.68 0.062,0.34 0.067,0.336 0.062,0.336"
           style="fill:none;stroke:#ff0000;stroke-width:0.850394;stroke-linecap:butt;stroke-linejoin:miter;stroke-miterlimit:10;stroke-dasharray:none;stroke-opacity:1"
           id="path1235" /><path
           d="m 145.387,130.727 0.023,0.324 0.063,0.648 0.039,0.324 0.039,0.321 0.047,0.324 0.101,0.641 0.055,0.32 0.058,0.32 0.063,0.317 0.063,0.32 0.187,0.949 0.059,0.32 0.117,0.633 0.051,0.317 0.046,0.316 0.043,0.317 0.039,0.316 0.032,0.32 0.023,0.321 0.02,0.324 0.011,0.32 0.004,0.328 -0.004,0.324 -0.011,0.332 -0.02,0.332 -0.023,0.333 -0.032,0.335 -0.039,0.34 -0.043,0.34 -0.05,0.348 -0.055,0.344 -0.055,0.351 -0.062,0.352 -0.067,0.355 -0.132,0.719 -0.071,0.359 -0.14,0.735 -0.067,0.367 -0.07,0.371 -0.067,0.371 -0.124,0.75 -0.059,0.375 -0.055,0.379 -0.101,0.758 -0.043,0.383 -0.043,0.378 -0.035,0.383 -0.032,0.383 -0.027,0.383 -0.023,0.387 -0.02,0.382 -0.016,0.387 -0.011,0.383 -0.004,0.387 v 0.386 l 0.004,0.383 0.007,0.387 0.012,0.387 0.016,0.386 0.023,0.383 0.055,0.774 0.035,0.382 0.039,0.387 0.043,0.387 0.047,0.383 0.051,0.386 0.054,0.383 0.059,0.383 0.063,0.387 0.066,0.383 0.07,0.382 0.075,0.383 0.078,0.383 0.078,0.387 0.082,0.383 0.269,1.148 0.196,0.766 0.101,0.378 0.106,0.383 0.218,0.766 0.114,0.383 0.117,0.379 0.242,0.765 0.25,0.766 0.258,0.766 0.133,0.382 0.136,0.383 0.133,0.387 0.141,0.383 0.137,0.386 0.14,0.391 0.141,0.387 0.144,0.39 0.141,0.395 0.289,0.789 0.148,0.394 0.145,0.399 0.297,0.805 0.305,0.804 0.156,0.407 0.156,0.402 0.16,0.406 0.164,0.406 0.168,0.403 0.172,0.402 0.18,0.402 0.179,0.399 0.188,0.394 0.195,0.391 0.203,0.383 0.211,0.383 0.215,0.371 0.227,0.367 0.234,0.359 0.242,0.352 0.254,0.344 0.266,0.332 0.273,0.324 0.282,0.308 0.293,0.301 0.304,0.289 0.313,0.278 0.324,0.261 0.336,0.254 0.344,0.239 0.351,0.226 0.363,0.211 0.375,0.199 0.379,0.188 0.387,0.172 0.399,0.164 0.402,0.144 0.41,0.137 0.418,0.125 0.426,0.109 0.429,0.098 0.434,0.09 0.441,0.074 0.446,0.066 0.445,0.051 0.453,0.043 0.457,0.031 0.461,0.02 0.461,0.012 h 0.469 l 0.465,-0.012 0.468,-0.016 0.473,-0.031 0.473,-0.035 0.472,-0.047 0.477,-0.055 0.473,-0.062 0.476,-0.07 0.473,-0.075 0.473,-0.082 0.472,-0.09 0.469,-0.093 0.469,-0.098 0.468,-0.105 0.465,-0.106 0.461,-0.109 0.457,-0.11 0.906,-0.226 0.446,-0.11 0.445,-0.113 0.438,-0.109 0.433,-0.106 0.43,-0.105 0.422,-0.102 0.418,-0.093 0.414,-0.094 0.41,-0.086 0.402,-0.078 0.399,-0.074 0.394,-0.067 0.387,-0.059 0.383,-0.054 0.379,-0.043 0.375,-0.039 0.371,-0.028 0.363,-0.023 0.363,-0.016 0.356,-0.007 h 0.355 l 0.352,0.003 0.351,0.008 0.344,0.016 0.348,0.016 0.34,0.023 0.343,0.023 0.68,0.055 0.336,0.024 0.34,0.027 0.336,0.023 0.34,0.024 0.336,0.019 0.339,0.016 0.336,0.012 0.34,0.007 0.34,0.004 0.336,-0.004 0.34,-0.007 0.34,-0.016 0.336,-0.02 0.34,-0.023 0.335,-0.027 0.34,-0.035 0.336,-0.036 0.34,-0.043 0.336,-0.043 0.332,-0.05 0.336,-0.047 0.336,-0.051 0.332,-0.055 0.332,-0.05 0.328,-0.055 0.332,-0.055 0.985,-0.152 0.324,-0.051 0.648,-0.094 0.973,-0.129 0.32,-0.043 0.641,-0.078 0.32,-0.043 0.32,-0.035 0.641,-0.078 0.316,-0.043 0.321,-0.039 0.316,-0.039 0.317,-0.043 0.32,-0.039 0.949,-0.129 0.316,-0.047 0.317,-0.043 0.312,-0.047 0.317,-0.043 0.316,-0.047 0.317,-0.043 0.312,-0.046 0.949,-0.129 0.313,-0.039 0.316,-0.043 0.317,-0.035 0.32,-0.036 0.316,-0.035 0.321,-0.031 0.316,-0.027 0.32,-0.028 0.325,-0.019 0.32,-0.02 0.324,-0.015 0.328,-0.012 0.324,-0.008 0.332,-0.004 h 0.329 l 0.336,0.004 0.332,0.008 0.339,0.012 0.34,0.015 0.688,0.047 0.347,0.031 0.352,0.032 0.711,0.078 0.359,0.043 0.727,0.093 0.367,0.051 0.371,0.051 0.375,0.055 0.375,0.05 0.379,0.055 0.766,0.11 0.383,0.05 0.386,0.051 0.391,0.051 0.39,0.047 0.79,0.086 0.394,0.039 0.399,0.039 0.796,0.062 0.403,0.032 0.804,0.046 1.219,0.047 0.41,0.008 0.821,0.008 h 0.41 l 0.41,-0.004 0.828,-0.023 0.414,-0.016 0.414,-0.02 0.414,-0.023 0.414,-0.031 0.414,-0.035 0.414,-0.04 0.415,-0.042 0.82,-0.11 0.41,-0.062 0.41,-0.071 0.406,-0.074 0.403,-0.082 0.402,-0.09 0.399,-0.097 0.398,-0.102 0.394,-0.109 0.395,-0.114 0.387,-0.121 0.39,-0.129 0.383,-0.132 0.387,-0.137 0.379,-0.145 0.383,-0.144 0.378,-0.153 1.137,-0.468 0.379,-0.16 0.379,-0.165 0.766,-0.32 0.386,-0.164 0.391,-0.156 0.395,-0.16 0.398,-0.157 0.402,-0.156 0.407,-0.152 0.41,-0.152 0.836,-0.297 0.425,-0.149 0.43,-0.144 0.43,-0.149 0.433,-0.144 0.438,-0.153 0.437,-0.148 0.442,-0.156 0.437,-0.16 0.434,-0.165 0.43,-0.171 0.429,-0.18 0.418,-0.188 0.414,-0.199 0.407,-0.211 0.39,-0.219 0.383,-0.234 0.367,-0.246 0.352,-0.262 0.34,-0.277 0.32,-0.289 0.301,-0.309 0.285,-0.32 0.265,-0.336 0.243,-0.352 0.226,-0.367 0.207,-0.379 0.184,-0.394 0.168,-0.406 0.148,-0.418 0.129,-0.43 0.113,-0.438 0.094,-0.449 0.078,-0.457 0.067,-0.465 0.05,-0.468 0.04,-0.473 0.027,-0.481 0.016,-0.48 0.007,-0.48 v -0.485 l -0.007,-0.484 -0.012,-0.488 -0.02,-0.481 -0.023,-0.484 -0.028,-0.481 -0.031,-0.48 -0.07,-0.953 -0.039,-0.473 -0.043,-0.473 -0.047,-0.468 -0.051,-0.469 -0.051,-0.465 -0.054,-0.461 -0.125,-0.922 -0.071,-0.461 -0.074,-0.457 -0.078,-0.457 -0.086,-0.453 -0.094,-0.457 -0.097,-0.453 -0.102,-0.453 -0.109,-0.449 -0.117,-0.454 -0.121,-0.445 -0.129,-0.449 -0.133,-0.445 -0.141,-0.446 -0.14,-0.441 -0.149,-0.438 -0.152,-0.437 -0.153,-0.434 -0.156,-0.429 -0.156,-0.426 -0.16,-0.426 -0.313,-0.836 -0.156,-0.41 -0.152,-0.406 -0.149,-0.407 -0.148,-0.398 -0.141,-0.391 -0.136,-0.39 -0.129,-0.387 -0.129,-0.379 -0.118,-0.375 -0.113,-0.371 -0.105,-0.367 -0.102,-0.363 -0.09,-0.36 -0.086,-0.355 -0.078,-0.352 -0.07,-0.348 -0.063,-0.343 -0.058,-0.344 -0.051,-0.336 -0.043,-0.34 -0.039,-0.332 -0.031,-0.332 -0.047,-0.656 -0.024,-0.649 -0.003,-0.324 -0.004,-0.32 0.004,-0.32 0.007,-0.321 0.012,-0.316 0.012,-0.32 0.015,-0.317 0.02,-0.316 0.07,-0.949 0.028,-0.317 0.031,-0.316 0.027,-0.317 0.031,-0.316 0.028,-0.317 0.031,-0.316 0.082,-0.949 0.024,-0.317 0.019,-0.316 0.02,-0.32 0.015,-0.317 0.016,-0.32 0.008,-0.316 0.007,-0.321 v -0.316 l -0.007,-0.641 -0.012,-0.316 -0.016,-0.317 -0.019,-0.32 -0.024,-0.316 -0.027,-0.321 -0.062,-0.632 -0.036,-0.317 -0.117,-0.949 -0.039,-0.313 -0.078,-0.632 -0.035,-0.317 -0.031,-0.316 -0.032,-0.32 -0.023,-0.317 -0.02,-0.32 -0.015,-0.321 -0.012,-0.32 -0.004,-0.324 0.004,-0.328 0.012,-0.328 0.015,-0.328 0.024,-0.336 0.031,-0.332 0.039,-0.34 0.043,-0.34 0.051,-0.344 0.055,-0.347 0.058,-0.352 0.067,-0.352 0.066,-0.355 0.141,-0.719 0.074,-0.363 0.074,-0.367 0.141,-0.735 0.066,-0.371 0.063,-0.371 0.058,-0.371 0.055,-0.375 0.047,-0.371 0.043,-0.375 0.031,-0.371 0.027,-0.375 0.02,-0.371 0.012,-0.371 0.003,-0.368 -0.003,-0.371 -0.008,-0.367 -0.02,-0.367 -0.019,-0.363 -0.032,-0.367 -0.031,-0.364 -0.039,-0.367 -0.039,-0.363 -0.043,-0.367 -0.043,-0.364 -0.043,-0.371 -0.039,-0.367 -0.039,-0.375 -0.035,-0.375 -0.031,-0.383 -0.028,-0.383 -0.019,-0.39 -0.012,-0.399 -0.004,-0.402 0.004,-0.41 0.012,-0.418 0.019,-0.426 0.028,-0.43 0.039,-0.441 0.047,-0.449 0.054,-0.461 0.063,-0.465 0.066,-0.473 0.074,-0.484 0.078,-0.488 0.082,-0.496 0.083,-0.504 0.085,-0.508 0.082,-0.512 0.083,-0.515 0.074,-0.52 0.07,-0.519 0.066,-0.524 0.055,-0.519 0.047,-0.52 0.031,-0.516 0.024,-0.511 0.008,-0.504 -0.008,-0.5 -0.024,-0.492 -0.043,-0.485 -0.054,-0.476 -0.079,-0.465 -0.089,-0.453 -0.114,-0.446 -0.129,-0.429 -0.144,-0.422 -0.168,-0.406 -0.18,-0.399 -0.199,-0.383 -0.215,-0.371 -0.226,-0.359 -0.246,-0.348 -0.258,-0.336 -0.27,-0.324 -0.281,-0.316 -0.293,-0.305 -0.301,-0.293 -0.312,-0.285 -0.321,-0.281 -0.328,-0.27 -0.332,-0.262 -0.344,-0.254 -0.343,-0.246 -0.352,-0.242 -0.719,-0.461 -0.367,-0.223 -0.371,-0.214 -0.375,-0.207 -0.379,-0.203 -0.379,-0.2 -0.386,-0.191 -0.391,-0.184 -0.391,-0.175 -0.394,-0.172 -0.403,-0.168 -0.402,-0.157 -0.406,-0.152 -0.406,-0.148 -0.414,-0.137 -0.414,-0.133 -0.415,-0.129 -0.421,-0.121 -0.418,-0.113 -0.426,-0.11 -0.422,-0.101 -0.426,-0.098 -0.426,-0.094 -0.429,-0.089 -0.426,-0.082 -0.43,-0.079 -0.426,-0.078 -0.429,-0.07 -0.852,-0.133 -0.429,-0.062 -0.422,-0.055 -0.426,-0.059 -0.426,-0.05 -0.844,-0.102 -0.418,-0.047 -0.836,-0.086 -0.414,-0.043 -0.828,-0.078 -0.406,-0.039 -0.41,-0.039 -0.406,-0.035 -0.805,-0.078 -0.399,-0.039 -0.394,-0.039 -0.395,-0.043 -0.39,-0.039 -0.391,-0.047 -0.387,-0.043 -0.765,-0.094 -0.758,-0.102 -0.375,-0.054 -0.375,-0.051 -0.375,-0.055 -0.371,-0.05 -0.371,-0.055 -0.367,-0.051 -0.371,-0.051 -0.368,-0.047 -0.742,-0.086 -0.367,-0.035 -0.371,-0.031 -0.371,-0.023 -0.371,-0.02 -0.375,-0.012 -0.375,-0.004 -0.375,0.004 -0.375,0.016 -0.379,0.023 -0.379,0.032 -0.379,0.039 -0.379,0.051 -0.383,0.058 -0.379,0.07 -0.382,0.075 -0.379,0.09 -0.383,0.093 -0.379,0.102 -0.379,0.109 -0.379,0.113 -0.375,0.122 -0.75,0.257 -0.371,0.133 -0.371,0.137 -0.367,0.137 -0.364,0.14 -0.363,0.137 -0.719,0.273 -0.351,0.133 -0.703,0.258 -0.344,0.121 -0.344,0.117 -0.34,0.114 -0.339,0.105 -0.336,0.102 -0.332,0.093 -0.332,0.086 -0.332,0.078 -0.325,0.075 -0.328,0.066 -0.324,0.059 -0.32,0.054 -0.325,0.047 -0.32,0.039 -0.316,0.032 -0.321,0.027 -0.316,0.023 -0.32,0.016 -0.317,0.012 -0.633,0.007 -0.316,-0.003 -0.316,-0.008 -0.321,-0.012 -0.316,-0.012 -0.316,-0.019 -0.321,-0.02 -0.316,-0.023 -0.321,-0.028 -0.64,-0.062 -0.32,-0.035 -0.649,-0.078 -0.324,-0.043 -0.328,-0.047 -0.324,-0.051 -0.329,-0.055 -0.332,-0.054 -0.332,-0.059 -0.332,-0.062 -0.336,-0.067 -0.336,-0.07 -0.679,-0.149 -0.688,-0.156 -0.347,-0.082 -0.348,-0.086 -0.703,-0.172 -0.711,-0.172 -0.719,-0.164 -0.363,-0.082 -0.363,-0.078 -0.727,-0.14 -0.367,-0.063 -0.367,-0.058 -0.364,-0.051 -0.367,-0.043 -0.367,-0.039 -0.367,-0.032 -0.363,-0.023 -0.368,-0.016 -0.363,-0.007 h -0.363 l -0.364,0.007 -0.359,0.012 -0.363,0.02 -0.36,0.027 -0.359,0.031 -0.359,0.039 -0.356,0.039 -0.359,0.047 -0.356,0.051 -0.359,0.051 -0.355,0.054 -0.36,0.055 -0.359,0.059 -0.36,0.054 -0.359,0.059 -0.363,0.055 -0.364,0.058 -0.367,0.055 -0.367,0.051 -0.367,0.054 -1.125,0.141 -0.766,0.078 -0.386,0.035 -0.391,0.036 -0.395,0.027 -0.398,0.027 -0.402,0.028 -0.407,0.019 -0.41,0.02 -0.414,0.015 -0.418,0.012 -0.422,0.012 -0.425,0.011 -0.43,0.008 -0.434,0.004 -0.437,0.008 -0.442,0.004 -0.445,0.004 -0.449,0.008 -0.449,0.003 -0.457,0.008 -0.454,0.008 -0.461,0.012 -0.921,0.031 -0.461,0.024 -0.465,0.027 -0.461,0.031 -0.461,0.039 -0.465,0.043 -0.461,0.051 -0.457,0.059 -0.457,0.062 -0.453,0.074 -0.449,0.082 -0.449,0.09 -0.446,0.102 -0.437,0.105 -0.434,0.121 -0.43,0.125 -0.425,0.137 -0.422,0.148 -0.414,0.157 -0.406,0.164 -0.403,0.176 -0.394,0.187 -0.387,0.195 -0.383,0.203 -0.371,0.215 -0.367,0.223 -0.36,0.234 -0.351,0.246 -0.34,0.254 -0.332,0.262 -0.324,0.273 -0.317,0.286 -0.304,0.293 -0.297,0.3 -0.281,0.313 -0.278,0.324 -0.261,0.332 -0.254,0.344 -0.239,0.351 -0.23,0.36 -0.215,0.371 -0.203,0.379 -0.192,0.387 -0.179,0.398 -0.168,0.406 -0.156,0.414 -0.141,0.418 -0.133,0.43 -0.117,0.434 -0.106,0.441 -0.097,0.449 -0.082,0.453 -0.074,0.457 -0.067,0.461 -0.055,0.465 -0.042,0.465 -0.036,0.473 -0.027,0.472 -0.02,0.473 -0.015,0.476 -0.004,0.477 v 0.473 l 0.008,0.476 0.031,0.953 0.027,0.477 0.028,0.473 0.035,0.476 0.039,0.469 0.043,0.473 0.047,0.468 0.054,0.469 0.055,0.465 0.059,0.465 0.133,0.922 0.07,0.457 0.07,0.453 0.074,0.453 0.079,0.449 0.156,0.891 0.078,0.437 0.078,0.434 0.074,0.433 0.078,0.426 0.071,0.422 0.07,0.414 0.062,0.414 0.063,0.406 0.055,0.403 0.047,0.394 0.042,0.391 0.036,0.387 0.031,0.383 0.023,0.374 0.012,0.372 0.008,0.363 v 0.363 l -0.008,0.356 -0.012,0.355 -0.047,0.695 -0.035,0.344 -0.078,0.68 -0.047,0.336 -0.101,0.664 -0.11,0.664 -0.058,0.332 -0.11,0.656 -0.054,0.332 -0.051,0.328 -0.047,0.332 -0.047,0.328 -0.043,0.333 -0.039,0.332 -0.039,0.328 -0.062,0.664 -0.047,0.664 -0.02,0.332 -0.012,0.332 -0.015,0.332 -0.024,0.996 -0.007,0.664 v 0.988 l -0.004,0.328 v 1.969 l -0.004,0.324 v 0.653 l 0.004,0.328 v 0.324 l 0.004,0.324 0.007,0.328 0.008,0.325 0.024,0.648 0.039,0.649"
           style="fill:none;stroke:#0000ff;stroke-width:0.850394;stroke-linecap:butt;stroke-linejoin:miter;stroke-miterlimit:10;stroke-dasharray:none;stroke-opacity:1"
           id="path1237" /><path
           d="m 127.41,130.727 0.028,0.437 0.046,0.438 0.071,0.437 0.09,0.434 0.117,0.433 0.136,0.43 0.164,0.426 0.188,0.426 0.211,0.421 0.234,0.418 0.258,0.414 0.281,0.407 0.301,0.406 0.32,0.398 0.344,0.391 0.36,0.387 0.375,0.382 0.39,0.376 0.406,0.371 0.415,0.363 0.425,0.359 0.438,0.352 0.437,0.344 0.446,0.343 0.449,0.332 0.453,0.332 0.449,0.325 0.449,0.32 0.446,0.316 0.441,0.309 0.434,0.308 0.429,0.305 0.422,0.301 0.414,0.301 0.403,0.297 0.394,0.293 0.387,0.293 0.371,0.293 0.363,0.289 0.352,0.289 0.34,0.289 0.328,0.289 0.32,0.289 0.305,0.289 0.297,0.289 0.289,0.289 0.273,0.289 0.27,0.293 0.258,0.289 0.25,0.293 0.242,0.289 0.234,0.293 0.231,0.293 0.222,0.297 0.219,0.293 0.215,0.293 0.211,0.293 0.414,0.586 0.609,0.879 0.61,0.867 0.203,0.285 0.207,0.285 0.211,0.281 0.207,0.282 0.211,0.277 0.215,0.277 0.218,0.278 0.219,0.269 0.219,0.274 0.222,0.265 0.454,0.532 0.23,0.261 0.23,0.258 0.239,0.258 0.234,0.254 0.238,0.25 0.243,0.25 0.242,0.246 0.246,0.242 0.25,0.242 0.5,0.477 0.254,0.234 0.258,0.231 0.254,0.23 0.261,0.227 0.258,0.222 0.262,0.223 0.265,0.219 0.262,0.215 0.266,0.218 0.265,0.211 0.266,0.215 0.262,0.211 0.265,0.207 0.262,0.211 0.266,0.207 0.257,0.211 0.262,0.207 0.254,0.211 0.254,0.207 0.254,0.211 0.25,0.215 0.246,0.211 0.242,0.219 0.238,0.214 0.469,0.446 0.227,0.222 0.226,0.231 0.223,0.23 0.215,0.235 0.43,0.476 0.207,0.242 0.207,0.246 0.203,0.25 0.199,0.25 0.199,0.254 0.199,0.258 0.196,0.258 0.195,0.262 0.191,0.265 0.196,0.262 0.191,0.266 0.195,0.269 0.192,0.27 0.195,0.265 0.192,0.274 0.39,0.539 0.199,0.273 0.196,0.27 0.199,0.273 0.203,0.27 0.199,0.273 0.203,0.27 0.207,0.273 0.204,0.274 0.207,0.269 0.211,0.274 0.207,0.269 0.211,0.274 0.859,1.093 0.437,0.547 0.219,0.278 0.219,0.273 0.445,0.555 0.227,0.277 0.226,0.281 0.227,0.278 0.226,0.281 0.231,0.281 0.23,0.285 0.231,0.282 0.469,0.57 0.234,0.289 0.238,0.289 0.235,0.289 0.242,0.293 0.238,0.293 0.242,0.293 0.242,0.297 0.493,0.594 0.25,0.296 0.25,0.301 0.254,0.297 0.253,0.301 0.258,0.297 0.262,0.297 0.262,0.293 0.269,0.293 0.27,0.289 0.273,0.289 0.278,0.281 0.281,0.277 0.285,0.27 0.293,0.265 0.293,0.262 0.301,0.25 0.3,0.246 0.309,0.239 0.313,0.226 0.32,0.219 0.32,0.215 0.324,0.203 0.329,0.195 0.335,0.188 0.336,0.179 0.34,0.172 0.34,0.168 0.344,0.16 0.695,0.305 0.352,0.148 0.703,0.29 0.355,0.144 0.352,0.145 0.355,0.144 0.711,0.297 0.356,0.156 0.351,0.16 0.356,0.164 0.355,0.168 0.356,0.176 0.355,0.184 0.356,0.187 0.355,0.196 0.359,0.199 0.356,0.203 0.359,0.211 0.364,0.215 0.359,0.218 0.363,0.219 0.367,0.223 0.368,0.226 0.742,0.446 0.375,0.222 0.758,0.43 0.382,0.207 0.387,0.203 0.387,0.192 0.391,0.183 0.394,0.176 0.395,0.168 0.398,0.152 0.402,0.141 0.403,0.129 0.402,0.117 0.406,0.102 0.41,0.09 0.407,0.074 0.41,0.058 0.41,0.047 0.41,0.031 0.41,0.016 h 0.411 l 0.41,-0.012 0.41,-0.023 0.406,-0.039 0.41,-0.051 0.406,-0.066 0.403,-0.075 0.406,-0.089 0.402,-0.098 0.399,-0.109 0.402,-0.118 0.395,-0.129 0.394,-0.136 0.395,-0.145 0.39,-0.152 0.387,-0.16 0.387,-0.168 0.383,-0.172 0.382,-0.18 0.379,-0.183 0.375,-0.188 0.375,-0.195 0.371,-0.199 0.372,-0.204 0.367,-0.207 0.363,-0.211 0.363,-0.218 0.356,-0.219 0.359,-0.227 0.352,-0.226 0.351,-0.235 0.348,-0.238 0.344,-0.242 0.34,-0.246 0.339,-0.25 0.332,-0.254 0.332,-0.262 0.329,-0.261 0.324,-0.27 0.324,-0.273 0.316,-0.278 0.317,-0.281 0.308,-0.281 0.309,-0.289 0.305,-0.293 0.593,-0.594 0.293,-0.301 0.293,-0.305 0.571,-0.609 0.277,-0.308 0.277,-0.313 0.274,-0.309 0.273,-0.312 0.27,-0.313 0.265,-0.312 0.262,-0.313 0.258,-0.312 0.258,-0.316 0.258,-0.313 0.75,-0.937 0.246,-0.309 0.484,-0.625 0.238,-0.309 0.235,-0.312 0.234,-0.309 0.691,-0.926 0.223,-0.304 0.227,-0.305 0.222,-0.305 0.219,-0.304 0.438,-0.602 0.214,-0.301 0.43,-0.593 0.215,-0.293 0.211,-0.293 0.211,-0.289 0.422,-0.571 0.422,-0.562 0.207,-0.278 0.422,-0.546 0.21,-0.27 0.207,-0.269 0.211,-0.262 0.211,-0.266 0.211,-0.262 0.422,-0.515 0.207,-0.254 0.422,-0.508 0.633,-0.75 0.211,-0.246 0.207,-0.246 0.211,-0.246 0.844,-0.969 0.214,-0.238 0.211,-0.235 0.215,-0.234 0.219,-0.234 0.215,-0.231 0.222,-0.226 0.219,-0.227 0.453,-0.445 0.231,-0.215 0.234,-0.215 0.234,-0.211 0.243,-0.207 0.246,-0.207 0.246,-0.199 0.254,-0.199 0.258,-0.196 0.261,-0.191 0.27,-0.188 0.269,-0.183 0.278,-0.184 0.281,-0.183 0.285,-0.176 0.289,-0.18 0.586,-0.351 0.301,-0.176 0.301,-0.172 0.3,-0.176 0.305,-0.176 0.61,-0.359 0.304,-0.184 0.305,-0.187 0.301,-0.188 0.297,-0.195 0.293,-0.195 0.293,-0.203 0.285,-0.207 0.281,-0.215 0.277,-0.215 0.27,-0.227 0.265,-0.226 0.258,-0.235 0.254,-0.238 0.246,-0.246 0.238,-0.25 0.239,-0.254 0.453,-0.515 0.219,-0.266 0.218,-0.27 0.215,-0.269 0.211,-0.27 0.422,-0.547 0.215,-0.277 0.43,-0.547 0.222,-0.273 0.223,-0.27 0.23,-0.269 0.239,-0.27 0.242,-0.265 0.25,-0.266 0.258,-0.262 0.265,-0.261 0.274,-0.258 0.281,-0.258 0.289,-0.258 0.297,-0.254 0.305,-0.258 0.312,-0.254 0.317,-0.253 0.324,-0.254 0.328,-0.258 0.332,-0.258 0.336,-0.258 0.336,-0.261 0.34,-0.266 0.336,-0.266 0.339,-0.269 0.336,-0.274 0.332,-0.281 0.328,-0.281 0.325,-0.285 0.32,-0.293 0.309,-0.297 0.304,-0.301 0.297,-0.309 0.289,-0.308 0.278,-0.32 0.265,-0.321 0.258,-0.328 0.25,-0.328 0.234,-0.34 0.227,-0.34 0.215,-0.343 0.203,-0.352 0.195,-0.352 0.184,-0.355 0.176,-0.359 0.164,-0.364 0.152,-0.367 0.148,-0.371 0.141,-0.371 0.133,-0.371 0.129,-0.375 0.121,-0.379 0.117,-0.375 0.109,-0.383 0.114,-0.379 0.422,-1.531 0.105,-0.387 0.106,-0.383 0.218,-0.773 0.11,-0.391 0.113,-0.386 0.113,-0.391 0.235,-0.781 0.121,-0.395 0.121,-0.39 0.121,-0.399 0.117,-0.394 0.242,-0.797 0.227,-0.805 0.109,-0.402 0.106,-0.403 0.101,-0.406 0.094,-0.41 0.086,-0.406 0.078,-0.41 0.074,-0.411 0.063,-0.41 0.051,-0.41 0.043,-0.414 0.035,-0.41 0.019,-0.414 0.012,-0.41 v -0.414 l -0.012,-0.411 -0.023,-0.41 -0.031,-0.41 -0.047,-0.406 -0.055,-0.406 -0.066,-0.407 -0.079,-0.406 -0.086,-0.402 -0.101,-0.399 -0.106,-0.398 -0.121,-0.399 -0.129,-0.394 -0.136,-0.391 -0.145,-0.386 -0.156,-0.387 -0.164,-0.387 -0.176,-0.379 -0.18,-0.379 -0.191,-0.375 -0.199,-0.371 -0.207,-0.371 -0.215,-0.363 -0.223,-0.363 -0.23,-0.356 -0.242,-0.355 -0.246,-0.352 -0.254,-0.344 -0.266,-0.343 -0.27,-0.34 -0.277,-0.332 -0.285,-0.328 -0.293,-0.325 -0.301,-0.32 -0.304,-0.316 -0.313,-0.313 -0.32,-0.305 -0.325,-0.3 -0.332,-0.297 -0.332,-0.293 -0.339,-0.289 -0.344,-0.282 -0.348,-0.281 -0.351,-0.273 -0.352,-0.27 -0.355,-0.269 -0.356,-0.262 -0.355,-0.258 -0.36,-0.258 -0.711,-0.5 -0.359,-0.25 -0.356,-0.242 -0.351,-0.242 -0.703,-0.477 -0.344,-0.234 -0.348,-0.234 -1.019,-0.692 -0.332,-0.226 -0.332,-0.223 -0.328,-0.226 -0.328,-0.223 -0.325,-0.219 -0.324,-0.223 -0.32,-0.214 -0.317,-0.219 -0.632,-0.43 -0.313,-0.211 -0.309,-0.211 -0.312,-0.211 -0.309,-0.207 -0.609,-0.414 -0.305,-0.203 -0.304,-0.199 -0.301,-0.203 -0.602,-0.399 -0.89,-0.586 -0.293,-0.195 -0.293,-0.191 -0.289,-0.192 -0.293,-0.191 -0.285,-0.192 -0.29,-0.187 -0.285,-0.187 -0.281,-0.188 -0.285,-0.188 -0.281,-0.187 -0.555,-0.375 -0.273,-0.188 -0.274,-0.183 -0.273,-0.188 -0.539,-0.375 -0.266,-0.187 -0.523,-0.375 -0.258,-0.192 -0.258,-0.187 -0.258,-0.191 -0.25,-0.192 -0.254,-0.195 -0.492,-0.391 -0.246,-0.199 -0.242,-0.199 -0.239,-0.199 -0.476,-0.407 -0.469,-0.414 -0.23,-0.207 -0.461,-0.422 -0.227,-0.211 -0.453,-0.429 -0.668,-0.657 -0.223,-0.222 -0.218,-0.223 -0.223,-0.226 -0.219,-0.227 -0.215,-0.23 -0.218,-0.235 -0.215,-0.234 -0.215,-0.238 -0.422,-0.485 -0.207,-0.25 -0.207,-0.254 -0.207,-0.258 -0.406,-0.531 -0.196,-0.277 -0.199,-0.281 -0.191,-0.286 -0.192,-0.293 -0.191,-0.3 -0.188,-0.309 -0.183,-0.316 -0.184,-0.325 -0.179,-0.332 -0.18,-0.339 -0.176,-0.344 -0.176,-0.356 -0.172,-0.363 -0.175,-0.371 -0.172,-0.379 -0.172,-0.383 -0.172,-0.394 -0.172,-0.399 -0.172,-0.402 -0.175,-0.41 -0.176,-0.414 -0.18,-0.418 -0.18,-0.422 -0.183,-0.426 -0.188,-0.426 -0.187,-0.429 -0.196,-0.43 -0.199,-0.426 -0.203,-0.426 -0.207,-0.425 -0.215,-0.422 -0.218,-0.418 -0.227,-0.414 -0.234,-0.406 -0.239,-0.403 -0.242,-0.394 -0.254,-0.387 -0.258,-0.379 -0.265,-0.371 -0.274,-0.359 -0.277,-0.352 -0.285,-0.336 -0.293,-0.328 -0.301,-0.317 -0.309,-0.304 -0.312,-0.293 -0.316,-0.281 -0.329,-0.266 -0.328,-0.254 -0.339,-0.242 -0.34,-0.227 -0.348,-0.215 -0.355,-0.203 -0.356,-0.187 -0.363,-0.176 -0.364,-0.164 -0.371,-0.152 -0.375,-0.145 -0.375,-0.129 -0.379,-0.117 -0.382,-0.109 -0.383,-0.102 -0.387,-0.09 -0.39,-0.086 -0.391,-0.074 -0.391,-0.066 -0.39,-0.063 -0.395,-0.058 -0.391,-0.051 -0.789,-0.094 -0.394,-0.039 -0.399,-0.035 -0.394,-0.035 -0.789,-0.063 -0.395,-0.027 -0.398,-0.024 -0.789,-0.046 -0.395,-0.02 -0.394,-0.016 -0.399,-0.011 -0.394,-0.016 -0.789,-0.016 -0.395,-0.004 h -0.789 l -0.398,0.004 -0.395,0.004 -0.394,0.008 -0.391,0.008 -1.184,0.023 -0.394,0.004 h -0.789 l -0.391,-0.008 -0.398,-0.007 -0.395,-0.02 -0.394,-0.023 -0.399,-0.032 -0.398,-0.035 -0.399,-0.047 -0.398,-0.05 -0.402,-0.063 -0.407,-0.066 -0.406,-0.074 -0.406,-0.083 -0.41,-0.082 -0.828,-0.179 -0.414,-0.094 -0.418,-0.09 -0.422,-0.09 -0.418,-0.082 -0.422,-0.078 -0.422,-0.066 -0.422,-0.059 -0.422,-0.047 -0.418,-0.031 -0.418,-0.016 -0.418,0.004 -0.414,0.02 -0.41,0.043 -0.406,0.066 -0.399,0.086 -0.398,0.113 -0.387,0.137 -0.386,0.16 -0.375,0.188 -0.372,0.211 -0.359,0.234 -0.355,0.258 -0.344,0.281 -0.336,0.309 -0.328,0.324 -0.321,0.348 -0.308,0.363 -0.301,0.383 -0.293,0.394 -0.285,0.414 -0.277,0.422 -0.27,0.434 -0.262,0.441 -0.257,0.449 -0.25,0.454 -0.243,0.457 -0.238,0.457 -0.234,0.457 -0.227,0.457 -0.226,0.453 -0.223,0.453 -0.223,0.441 -0.218,0.442 -0.215,0.429 -0.215,0.426 -0.215,0.414 -0.215,0.41 -0.215,0.399 -0.215,0.39 -0.218,0.379 -0.215,0.371 -0.215,0.364 -0.219,0.355 -0.218,0.348 -0.219,0.34 -0.219,0.332 -0.219,0.328 -0.222,0.32 -0.219,0.317 -0.219,0.312 -0.223,0.305 -0.218,0.305 -0.657,0.89 -0.218,0.293 -0.215,0.293 -0.215,0.289 -0.211,0.289 -0.215,0.289 -0.207,0.285 -0.211,0.289 -0.414,0.571 -0.203,0.281 -0.203,0.285 -0.406,0.563 -0.199,0.281 -0.399,0.555 -0.199,0.273 -0.199,0.277 -0.196,0.27 -0.199,0.273 -0.195,0.266 -0.199,0.27 -0.196,0.265 -0.199,0.262 -0.195,0.262 -0.2,0.261 -0.195,0.258 -0.199,0.258 -0.398,0.508 -0.2,0.25 -0.195,0.25 -0.203,0.25 -0.199,0.25 -0.598,0.738 -0.199,0.242 -0.203,0.242 -0.598,0.727 -0.203,0.242 -0.399,0.485 -0.195,0.242 -0.398,0.484 -0.586,0.727 -0.574,0.738 -0.188,0.246 -0.191,0.246 -0.188,0.25 -0.734,1 -0.184,0.254 -0.183,0.25 -0.18,0.25 -0.184,0.254 -0.367,0.5 -0.183,0.246 -0.188,0.25 -0.191,0.246 -0.391,0.485 -0.406,0.476 -0.215,0.234 -0.215,0.231 -0.227,0.226 -0.234,0.223 -0.242,0.219 -0.25,0.215 -0.258,0.211 -0.269,0.207 -0.282,0.203 -0.289,0.199 -0.304,0.195 -0.317,0.192 -0.324,0.183 -0.34,0.184 -0.351,0.18 -0.364,0.175 -0.379,0.172 -0.386,0.172 -0.403,0.168 -0.41,0.168 -0.426,0.164 -0.429,0.168 -0.446,0.164 -0.453,0.164 -0.461,0.168 -0.465,0.168 -0.953,0.344 -0.484,0.176 -0.488,0.179 -0.977,0.375 -0.488,0.196 -0.492,0.199 -0.485,0.207 -0.484,0.211 -0.481,0.219 -0.476,0.226 -0.473,0.231 -0.465,0.242 -0.461,0.242 -0.449,0.254 -0.445,0.262 -0.438,0.265 -0.429,0.274 -0.422,0.281 -0.414,0.285 -0.403,0.293 -0.394,0.301 -0.387,0.309 -0.379,0.312 -0.367,0.316 -0.359,0.325 -0.352,0.332 -0.34,0.336 -0.328,0.339 -0.32,0.348 -0.313,0.352 -0.304,0.355 -0.289,0.363 -0.286,0.368 -0.273,0.371 -0.266,0.375 -0.254,0.379 -0.246,0.382 -0.238,0.387 -0.23,0.387 -0.219,0.394 -0.215,0.399 -0.207,0.398 -0.199,0.403 -0.192,0.406 -0.187,0.406 -0.18,0.41 -0.172,0.414 -0.168,0.414 -0.16,0.414 -0.156,0.422 -0.148,0.418 -0.141,0.426 -0.137,0.422 -0.125,0.426 -0.117,0.429 -0.109,0.43 -0.098,0.434 -0.09,0.429 -0.074,0.438 -0.059,0.433 -0.047,0.438 -0.027,0.437 -0.012,0.434 0.008,0.438"
           style="fill:none;stroke:#00ffff;stroke-width:0.850394;stroke-linecap:butt;stroke-linejoin:miter;stroke-miterlimit:10;stroke-dasharray:none;stroke-opacity:1"
           id="path1239" /><path
           d="m 148.336,130.727 v 0.308 l 0.008,0.61 0.008,0.304 0.007,0.309 0.024,0.609 0.031,0.61 0.016,0.308 0.023,0.305 0.02,0.305 0.023,0.304 0.055,0.61 0.031,0.304 0.031,0.301 0.106,0.914 0.039,0.301 0.043,0.305 0.043,0.3 0.043,0.305 0.047,0.301 0.101,0.601 0.051,0.305 0.055,0.301 0.058,0.297 0.117,0.601 0.063,0.301 0.062,0.297 0.067,0.301 0.066,0.297 0.071,0.297 0.074,0.296 0.07,0.297 0.078,0.297 0.074,0.297 0.079,0.293 0.082,0.297 0.082,0.293 0.086,0.297 0.085,0.293 0.09,0.293 0.09,0.289 0.09,0.293 0.094,0.289 0.097,0.293 0.094,0.289 0.305,0.867 0.105,0.285 0.106,0.289 0.328,0.856 0.113,0.281 0.117,0.285 0.235,0.563 0.121,0.281 0.125,0.281 0.121,0.277 0.129,0.282 0.125,0.277 0.129,0.277 0.133,0.274 0.132,0.277 0.137,0.274 0.133,0.273 0.281,0.547 0.281,0.539 0.149,0.269 0.144,0.27 0.297,0.531 0.305,0.531 0.156,0.266 0.156,0.262 0.161,0.262 0.16,0.257 0.16,0.262 0.328,0.516 0.168,0.257 0.336,0.508 0.344,0.508 0.527,0.75 0.359,0.492 0.368,0.492 0.183,0.243 0.188,0.242 0.187,0.238 0.192,0.242 0.382,0.477 0.391,0.469 0.199,0.234 0.199,0.231 0.2,0.234 0.199,0.226 0.203,0.231 0.207,0.226 0.203,0.227 0.207,0.223 0.211,0.226 0.211,0.219 0.211,0.223 0.211,0.218 0.215,0.219 0.433,0.434 0.219,0.211 0.219,0.215 0.223,0.21 0.222,0.208 0.223,0.21 0.226,0.207 0.223,0.204 0.231,0.207 0.226,0.203 0.461,0.398 0.234,0.199 0.469,0.391 0.238,0.195 0.235,0.192 0.242,0.191 0.238,0.192 0.485,0.375 0.242,0.183 0.246,0.184 0.246,0.179 0.246,0.184 0.246,0.176 0.25,0.18 0.25,0.175 0.254,0.172 0.25,0.172 0.254,0.172 0.254,0.168 0.258,0.168 0.254,0.168 0.258,0.164 0.261,0.16 0.258,0.164 0.262,0.156 0.261,0.161 0.262,0.156 0.266,0.152 0.265,0.156 0.266,0.149 0.266,0.152 0.265,0.145 0.27,0.148 0.269,0.145 0.27,0.14 0.273,0.141 0.27,0.14 0.547,0.274 0.277,0.133 0.274,0.133 0.277,0.132 0.277,0.129 0.278,0.125 0.281,0.129 0.277,0.121 0.844,0.364 0.281,0.113 0.285,0.117 0.285,0.113 0.282,0.11 0.289,0.109 0.285,0.109 0.285,0.106 0.289,0.105 0.289,0.102 0.285,0.102 0.293,0.097 0.289,0.098 0.289,0.094 0.293,0.093 0.289,0.09 0.586,0.18 0.293,0.086 0.297,0.082 0.586,0.164 0.297,0.078 0.891,0.223 0.593,0.14 0.297,0.067 0.301,0.066 0.301,0.063 0.297,0.062 0.601,0.117 0.602,0.11 0.902,0.152 0.305,0.047 0.301,0.043 0.304,0.043 0.301,0.039 0.61,0.078 0.3,0.035 0.914,0.094 0.305,0.027 0.914,0.071 0.305,0.019 0.914,0.047 0.309,0.012 0.304,0.011 0.305,0.008 0.305,0.004 0.308,0.004 0.305,0.004 h 0.609 l 0.309,-0.004 0.305,-0.004 0.304,-0.008 0.305,-0.011 0.308,-0.008 0.915,-0.047 0.609,-0.039 0.609,-0.047 0.61,-0.055 0.609,-0.062 0.305,-0.035 0.3,-0.036 0.61,-0.078 0.301,-0.039 0.304,-0.047 0.301,-0.043 0.301,-0.046 0.305,-0.051 0.3,-0.051 0.903,-0.164 0.301,-0.059 0.296,-0.062 0.301,-0.063 0.297,-0.062 0.301,-0.067 0.89,-0.21 0.594,-0.149 0.297,-0.078 0.293,-0.082 0.297,-0.078 0.293,-0.086 0.293,-0.082 0.293,-0.09 0.293,-0.086 0.293,-0.09 0.293,-0.094 0.289,-0.093 0.293,-0.098 0.578,-0.195 0.289,-0.102 0.285,-0.105 0.289,-0.102 0.856,-0.328 0.57,-0.227 0.281,-0.113 0.281,-0.121 0.282,-0.117 0.281,-0.121 0.281,-0.125 0.278,-0.121 0.281,-0.129 0.554,-0.258 0.274,-0.133 0.277,-0.133 0.274,-0.132 0.273,-0.137 0.274,-0.141 0.539,-0.281 0.273,-0.145 0.266,-0.144 0.269,-0.145 0.266,-0.152 0.269,-0.148 0.262,-0.153 0.266,-0.152 0.261,-0.156 0.266,-0.157 0.262,-0.16 0.258,-0.16 0.261,-0.16 0.258,-0.164 0.258,-0.168 0.254,-0.164 0.254,-0.168 0.258,-0.172 0.25,-0.172 0.253,-0.172 0.5,-0.351 0.25,-0.18 0.247,-0.176 0.492,-0.367 0.484,-0.367 0.484,-0.375 0.477,-0.383 0.238,-0.195 0.235,-0.192 0.234,-0.199 0.234,-0.195 0.231,-0.199 0.23,-0.204 0.231,-0.199 0.23,-0.203 0.227,-0.207 0.223,-0.207 0.226,-0.207 0.223,-0.207 0.222,-0.211 0.219,-0.211 0.438,-0.43 0.215,-0.214 0.429,-0.438 0.211,-0.219 0.422,-0.445 0.207,-0.223 0.414,-0.453 0.203,-0.226 0.203,-0.231 0.399,-0.461 0.199,-0.234 0.391,-0.469 0.195,-0.238 0.383,-0.477 0.187,-0.238 0.375,-0.484 0.184,-0.246 0.183,-0.243 0.18,-0.246 0.18,-0.25 0.18,-0.246 0.351,-0.5 0.172,-0.254 0.172,-0.25 0.172,-0.254 0.168,-0.257 0.168,-0.254 0.492,-0.774 0.32,-0.523 0.313,-0.524 0.457,-0.797 0.148,-0.265 0.149,-0.27 0.144,-0.265 0.145,-0.27 0.144,-0.273 0.141,-0.27 0.41,-0.82 0.133,-0.274 0.133,-0.277 0.386,-0.832 0.125,-0.277 0.364,-0.844 0.234,-0.563 0.227,-0.57 0.328,-0.855 0.105,-0.289 0.102,-0.286 0.203,-0.578 0.195,-0.578 0.094,-0.293 0.094,-0.289 0.179,-0.586 0.172,-0.586 0.082,-0.293 0.082,-0.297 0.082,-0.293 0.078,-0.296 0.223,-0.891 0.07,-0.297 0.067,-0.297 0.066,-0.301 0.067,-0.296 0.062,-0.301 0.063,-0.297 0.117,-0.602 0.109,-0.601 0.102,-0.602 0.047,-0.304 0.046,-0.301 0.043,-0.301 0.043,-0.305 0.039,-0.304 0.04,-0.301 0.07,-0.61 0.031,-0.3 0.063,-0.61 0.023,-0.304 0.027,-0.305 0.024,-0.305 0.039,-0.609 0.019,-0.309 0.012,-0.304 0.016,-0.305 0.011,-0.305 0.008,-0.305 0.008,-0.308 0.008,-0.305 0.004,-0.304 v -0.918 l -0.004,-0.305 -0.008,-0.305 -0.008,-0.308 -0.008,-0.305 -0.011,-0.305 -0.016,-0.304 -0.012,-0.305 -0.019,-0.309 -0.039,-0.609 -0.024,-0.305 -0.027,-0.305 -0.023,-0.304 -0.063,-0.61 -0.031,-0.3 -0.07,-0.61 -0.04,-0.304 -0.039,-0.301 -0.043,-0.305 -0.043,-0.301 -0.046,-0.3 -0.047,-0.305 -0.102,-0.602 -0.109,-0.601 -0.117,-0.602 -0.063,-0.297 -0.062,-0.301 -0.067,-0.3 -0.133,-0.594 -0.07,-0.297 -0.223,-0.891 -0.078,-0.296 -0.082,-0.293 -0.082,-0.297 -0.082,-0.293 -0.172,-0.586 -0.179,-0.586 -0.094,-0.289 -0.094,-0.293 -0.195,-0.578 -0.305,-0.867 -0.105,-0.286 -0.328,-0.855 -0.227,-0.57 -0.234,-0.563 -0.364,-0.844 -0.125,-0.277 -0.386,-0.832 -0.133,-0.277 -0.133,-0.274 -0.41,-0.82 -0.141,-0.27 -0.144,-0.273 -0.289,-0.539 -0.297,-0.531 -0.457,-0.797 -0.313,-0.524 -0.32,-0.523 -0.492,-0.774 -0.168,-0.253 -0.168,-0.258 -0.172,-0.254 -0.172,-0.25 -0.172,-0.254 -0.351,-0.5 -0.18,-0.246 -0.18,-0.25 -0.18,-0.246 -0.183,-0.242 -0.184,-0.247 -0.375,-0.484 -0.187,-0.238 -0.383,-0.477 -0.195,-0.238 -0.391,-0.469 -0.199,-0.234 -0.399,-0.461 -0.203,-0.231 -0.203,-0.226 -0.414,-0.453 -0.207,-0.223 -0.422,-0.445 -0.211,-0.219 -0.429,-0.437 -0.215,-0.215 -0.438,-0.43 -0.219,-0.211 -0.222,-0.211 -0.223,-0.207 -0.226,-0.207 -0.223,-0.207 -0.227,-0.207 -0.461,-0.406 -0.461,-0.399 -0.234,-0.195 -0.234,-0.199 -0.235,-0.192 -0.238,-0.195 -0.477,-0.383 -0.484,-0.375 -0.242,-0.183 -0.242,-0.188 -0.246,-0.18 -0.246,-0.183 -0.247,-0.18 -0.75,-0.527 -0.253,-0.172 -0.25,-0.172 -0.258,-0.172 -0.508,-0.336 -0.516,-0.328 -0.261,-0.16 -0.258,-0.16 -0.262,-0.16 -0.266,-0.157 -0.261,-0.156 -0.266,-0.152 -0.262,-0.153 -0.269,-0.152 -0.266,-0.148 -0.269,-0.145 -0.266,-0.144 -0.273,-0.145 -0.27,-0.144 -0.269,-0.137 -0.274,-0.141 -0.273,-0.136 -0.274,-0.133 -0.277,-0.137 -0.274,-0.129 -0.277,-0.133 -0.277,-0.125 -0.281,-0.129 -0.278,-0.125 -0.844,-0.363 -0.281,-0.117 -0.281,-0.113 -0.57,-0.227 -0.856,-0.328 -0.289,-0.102 -0.285,-0.105 -0.289,-0.102 -0.578,-0.195 -0.293,-0.098 -0.289,-0.093 -0.293,-0.094 -0.293,-0.09 -0.293,-0.086 -0.293,-0.09 -0.293,-0.082 -0.293,-0.086 -0.297,-0.078 -0.293,-0.082 -0.297,-0.078 -0.594,-0.148 -0.89,-0.211 -0.301,-0.067 -0.297,-0.062 -0.301,-0.063 -0.296,-0.062 -0.301,-0.059 -0.903,-0.164 -0.3,-0.051 -0.305,-0.051 -0.301,-0.046 -0.301,-0.043 -0.304,-0.047 -0.301,-0.039 -0.61,-0.078 -0.3,-0.036 -0.305,-0.035 -0.609,-0.062 -0.61,-0.055 -0.609,-0.047 -0.914,-0.058 -0.305,-0.012 -0.305,-0.016 -0.308,-0.008 -0.305,-0.011 -0.304,-0.008 -0.305,-0.004 -0.309,-0.004 h -0.914 l -0.308,0.008 -0.305,0.004 -0.305,0.008 -0.304,0.011 -0.309,0.012 -0.914,0.047 -0.305,0.019 -0.914,0.071 -0.305,0.027 -0.914,0.094 -0.3,0.035 -0.61,0.078 -0.301,0.039 -0.304,0.043 -0.301,0.043 -0.305,0.047 -0.301,0.051 -0.3,0.047 -0.903,0.164 -0.601,0.117 -0.297,0.062 -0.301,0.063 -0.301,0.066 -0.297,0.067 -0.89,0.211 -0.297,0.078 -0.297,0.074 -0.297,0.078 -0.586,0.164 -0.297,0.082 -0.293,0.086 -0.586,0.18 -0.289,0.09 -0.293,0.093 -0.289,0.094 -0.289,0.098 -0.293,0.098 -0.285,0.101 -0.289,0.102 -0.289,0.105 -0.285,0.106 -0.285,0.109 -0.289,0.109 -0.282,0.11 -0.57,0.226 -0.281,0.117 -0.281,0.122 -0.282,0.117 -0.281,0.125 -0.277,0.121 -0.281,0.125 -0.555,0.258 -0.277,0.132 -0.274,0.129 -0.277,0.137 -0.547,0.274 -0.27,0.136 -0.273,0.145 -0.27,0.14 -0.269,0.145 -0.27,0.148 -0.265,0.145 -0.266,0.152 -0.266,0.149 -0.265,0.156 -0.266,0.152 -0.523,0.313 -0.262,0.16 -0.258,0.164 -0.261,0.16 -0.258,0.164 -0.254,0.168 -0.258,0.168 -0.254,0.168 -0.254,0.172 -0.25,0.172 -0.254,0.172 -0.25,0.176 -0.25,0.179 -0.246,0.176 -0.246,0.184 -0.246,0.179 -0.246,0.184 -0.242,0.183 -0.485,0.375 -0.238,0.192 -0.242,0.191 -0.235,0.192 -0.238,0.191 -0.234,0.195 -0.469,0.399 -0.461,0.398 -0.226,0.203 -0.231,0.204 -0.223,0.207 -0.226,0.207 -0.223,0.207 -0.445,0.422 -0.219,0.214 -0.219,0.211 -0.433,0.434 -0.215,0.219 -0.422,0.437 -0.422,0.445 -0.207,0.227 -0.203,0.227 -0.207,0.226 -0.203,0.231 -0.199,0.226 -0.2,0.235 -0.199,0.23 -0.199,0.234 -0.391,0.469 -0.574,0.715 -0.375,0.484 -0.183,0.243 -0.368,0.492 -0.359,0.492 -0.527,0.75 -0.344,0.508 -0.336,0.508 -0.168,0.257 -0.328,0.516 -0.16,0.258 -0.321,0.523 -0.156,0.262 -0.156,0.266 -0.305,0.531 -0.297,0.531 -0.144,0.27 -0.149,0.269 -0.281,0.539 -0.281,0.547 -0.133,0.274 -0.137,0.273 -0.132,0.277 -0.133,0.274 -0.129,0.277 -0.125,0.277 -0.129,0.282 -0.121,0.277 -0.125,0.281 -0.121,0.282 -0.235,0.562 -0.117,0.285 -0.113,0.281 -0.328,0.856 -0.106,0.289 -0.105,0.285 -0.305,0.867 -0.094,0.289 -0.097,0.289 -0.094,0.293 -0.09,0.293 -0.09,0.289 -0.09,0.293 -0.085,0.293 -0.086,0.297 -0.164,0.586 -0.079,0.297 -0.074,0.297 -0.078,0.297 -0.07,0.297 -0.074,0.297 -0.071,0.296 -0.066,0.297 -0.067,0.301 -0.062,0.297 -0.063,0.301 -0.058,0.3 -0.059,0.297 -0.058,0.301 -0.055,0.301 -0.051,0.301 -0.051,0.304 -0.05,0.301 -0.047,0.301 -0.043,0.305 -0.043,0.3 -0.043,0.305 -0.039,0.301 -0.071,0.609 -0.035,0.301 -0.062,0.609 -0.055,0.61 -0.023,0.304 -0.02,0.305 -0.023,0.305 -0.016,0.305 -0.016,0.308 -0.015,0.305 -0.024,0.609 -0.007,0.305 -0.008,0.308 -0.008,0.61 v 0.305"
           style="fill:none;stroke:#000000;stroke-width:0.850394;stroke-linecap:butt;stroke-linejoin:miter;stroke-miterlimit:10;stroke-dasharray:none;stroke-opacity:1"
           id="path1241" /><text
           xml:space="preserve"
           transform="translate(83.222656,230.37109)"
           style="font-variant:normal;font-weight:normal;font-size:8px;font-family:'DejaVu Sans';-inkscape-font-specification:DejaVuSans;writing-mode:lr-tb;fill:#6c606b;fill-opacity:1;fill-rule:nonzero;stroke:none"
           id="text1253"><tspan
             x="0 2.9920001"
             y="0"
             sodipodi:role="line"
             id="tspan1243">-2</tspan><tspan
             x="0 2.9920001"
             y="-48.609375"
             sodipodi:role="line"
             id="tspan1245">-1</tspan><tspan
             x="3"
             y="-97.21875"
             id="tspan1247">0</tspan><tspan
             x="3"
             y="-145.82422"
             id="tspan1249">1</tspan><tspan
             x="3"
             y="-194.43359"
             id="tspan1251">2</tspan></text><text
           xml:space="preserve"
           transform="translate(67.71875,134.4375)"
           style="font-variant:normal;font-weight:normal;font-size:11px;font-family:'DejaVu Sans';-inkscape-font-specification:DejaVuSans;writing-mode:lr-tb;fill:#564a55;fill-opacity:1;fill-rule:nonzero;stroke:none"
           id="text1259"><tspan
             x="0"
             y="0"
             id="tspan1255">y</tspan><tspan
             x="61.726566 67.721565 71.725563 78.710564 85.684563 92.702568 98.686569 102.69057 105.68256 109.67557 116.67156 122.66656 129.66257 135.65756 138.64957 145.64557 152.64157 155.63356 162.62956 169.62556 176.62157 179.61357 190.61357"
             y="-110.05469"
             sodipodi:role="line"
             id="tspan1257">Product takes 65.418 ms</tspan></text></g></g></g><g
     id="g2111"
     transform="matrix(0.52922521,0,0,0.52922521,-107.12767,-30.607156)"><g
       id="g1355"
       transform="matrix(0.35277776,0,0,-0.35277778,371.42136,285.24201)"><g
         id="g1357"
         clip-path="url(#clipPath1361)"><path
           d="m 95.395878,400.2372 0.09949,-5.27761 0.298336,-5.27011 0.496755,-5.25512 0.694469,-5.23267 0.891195,-5.20277 1.086656,-5.16549 1.280571,-5.12086 1.47267,-5.06895 1.66267,-5.00985 1.85031,-4.94362 2.03533,-4.87038 2.21744,-4.7902 2.39641,-4.70322 2.57197,-4.60955 2.74389,-4.50935 2.91188,-4.40272 3.07576,-4.28985 3.23526,-4.17087 3.39016,-4.04597 3.54025,-3.91532 3.6853,-3.7791 3.82512,-3.63752 3.95949,-3.49077 4.08825,-3.33905 4.2112,-3.18259 4.32816,-3.02161 4.43896,-2.85634 4.54347,-2.687 4.64151,-2.51384 4.73297,-2.33712 4.81768,-2.15708 4.89557,-1.97396 4.96648,-1.78804 5.03035,-1.59959 5.08706,-1.40885 5.13655,-1.21613 5.17873,-1.02166 5.21356,-0.82574 5.24098,-0.62866 5.26095,-0.43068 5.27344,-0.23209 5.27844,-0.0332 5.27595,0.16581 5.26594,0.36453 5.24847,0.56276 5.22352,0.76016 5.19116,0.95651 5.15143,1.15148 5.10436,1.34482 5.05005,1.53624 4.98856,1.7255 4.91998,1.91229 4.84442,2.09636 4.76195,2.27746 4.67274,2.45532 4.57687,2.6297 4.47451,2.80033 4.36579,2.96698 4.25085,3.12942 4.12989,3.28742 4.00305,3.44073 3.87052,3.58917 3.7325,3.7325 3.58917,3.87052 3.44073,4.00305 3.28742,4.12989 3.12942,4.25085 2.96698,4.36579 2.80033,4.47451 2.6297,4.57687 2.45532,4.67274 2.27746,4.76195 2.09636,4.84442 1.91229,4.91998 1.7255,4.98856 1.53624,5.05005 1.34482,5.10436 1.15148,5.15143 0.95651,5.19116 0.76016,5.22352 0.56276,5.24847 0.36453,5.26594 0.16581,5.27595 -0.0332,5.27844 -0.23209,5.27344 -0.43068,5.26095 -0.62866,5.24098 -0.82574,5.21356 -1.02166,5.17873 -1.21613,5.13655 -1.40885,5.08706 -1.59959,5.03035 -1.78804,4.96648 -1.97396,4.89557 -2.15708,4.81768 -2.33712,4.73297 -2.51384,4.64151 -2.687,4.54347 -2.85634,4.43896 -3.02161,4.32816 -3.18259,4.2112 -3.33905,4.08825 -3.49077,3.95949 -3.63752,3.82512 -3.7791,3.6853 -3.91532,3.54025 -4.04597,3.39016 -4.17087,3.23526 -4.28985,3.07576 -4.40272,2.91188 -4.50935,2.74389 -4.60955,2.57197 -4.70322,2.39641 -4.7902,2.21744 -4.87038,2.03533 -4.94362,1.85031 -5.00985,1.66267 -5.06896,1.47267 -5.12086,1.28057 -5.16548,1.08666 -5.20277,0.89119 -5.23267,0.69447 -5.25512,0.49675 -5.27011,0.29834 -5.27761,0.0995 -5.27761,-0.0995 -5.27011,-0.29834 -5.25512,-0.49675 -5.23267,-0.69447 -5.20277,-0.89119 -5.16549,-1.08666 -5.12086,-1.28057 -5.06895,-1.47267 -5.00985,-1.66267 -4.94362,-1.85031 -4.87038,-2.03533 -4.7902,-2.21744 -4.70322,-2.39641 -4.60955,-2.57197 -4.50935,-2.74389 -4.40272,-2.91188 -4.28985,-3.07576 -4.17087,-3.23526 -4.04597,-3.39016 -3.91532,-3.54025 -3.7791,-3.6853 -3.63752,-3.82512 -3.49077,-3.95949 -3.33905,-4.08825 -3.18259,-4.2112 -3.02161,-4.32816 -2.85634,-4.43896 -2.687,-4.54347 -2.51384,-4.64151 -2.33712,-4.73297 -2.15708,-4.81768 -1.97396,-4.89557 -1.78804,-4.96648 -1.59959,-5.03035 -1.408856,-5.08706 -1.216122,-5.13655 -1.02166,-5.17873 -0.825747,-5.21356 -0.62866,-5.24098 -0.43068,-5.26095 -0.232087,-5.27344 -0.04422,-3.51887 v 0"
           style="fill:none;stroke:#000000;stroke-width:3;stroke-linecap:square;stroke-linejoin:round;stroke-miterlimit:10;stroke-dasharray:none;stroke-opacity:0.6"
           id="path1363" /></g></g><g
       id="g1365"
       transform="matrix(0.35277776,0,0,-0.35277778,371.42136,285.24201)"><g
         id="g1367"
         clip-path="url(#clipPath1371)"><path
           d="m 73.602,400.2372 0.119733,-4.06483 0.357563,-4.05198 0.590547,-4.02664 0.815643,-3.98951 1.030083,-3.94159 1.23146,-3.88416 1.417805,-3.81866 2.00904,-4.67158 2.240066,-4.55041 2.436023,-4.42442 2.597582,-4.29739 3.284899,-4.99269 4.001158,-5.61051 4.120992,-5.40012 5.397806,-6.67405 6.06011,-7.12056 6.7054,-7.54612 7.37288,-7.96051 7.4782,-7.73221 7.6356,-7.55068 7.84027,-7.41891 8.09479,-7.33876 7.70188,-6.68443 6.55513,-5.42753 6.06228,-4.75544 5.51745,-4.05959 4.90612,-3.35868 5.08157,-3.19856 4.37353,-2.50469 4.50038,-2.32265 4.62395,-2.10564 3.78339,-1.50486 3.85232,-1.32661 3.91398,-1.13254 3.96682,-0.92436 4.0095,-0.70426 4.04083,-0.47486 4.06,-0.23905 h 4.06644 l 4.06,0.23905 4.04083,0.47486 4.00949,0.70426 3.96683,0.92436 3.91398,1.13254 3.85231,1.32661 3.7834,1.50486 4.62395,2.10564 4.50038,2.32265 4.37352,2.50469 5.08158,3.19856 4.90612,3.35868 5.51745,4.05959 6.06228,4.75544 6.55513,5.42753 7.70188,6.68443 8.09479,7.33876 7.84027,7.41891 7.6356,7.55068 7.4782,7.73221 7.37288,7.96051 6.7054,7.54612 6.0601,7.12056 5.39782,6.67405 4.70127,6.18819 3.97906,5.64242 3.25756,5.02209 2.56795,4.32272 2.39962,4.44981 2.19666,4.57516 1.95867,4.69488 1.37272,3.8357 1.18246,3.89933 0.97761,3.95452 0.76026,3.99985 0.53293,4.03411 0.29844,4.05638 0.0599,4.06604 -0.17947,4.06281 -0.41639,4.0468 -0.64767,4.01843 -0.87035,3.97849 -1.08174,3.92807 -1.27952,3.86848 -1.46186,3.80122 -2.05804,4.64793 -2.28206,4.52547 -2.47104,4.39898 -3.16683,5.1116 -3.33542,4.93468 -4.04138,5.54801 -4.74345,6.09286 -5.42108,6.58388 -6.68069,7.72993 -7.33402,8.11872 -7.41034,7.85943 -7.53771,7.65091 -7.71531,7.48938 -7.93957,7.37966 -8.21947,7.31704 -7.12056,6.0601 -6.67405,5.39782 -6.18819,4.70127 -5.64242,3.97906 -5.0221,3.25756 -4.32271,2.56795 -4.44981,2.39962 -4.57516,2.19666 -4.69488,1.95867 -3.8357,1.37272 -3.89933,1.18246 -3.95452,0.97761 -3.99985,0.76026 -4.03411,0.53293 -4.05638,0.29844 -4.06604,0.0599 -4.06281,-0.17947 -4.0468,-0.41639 -4.01843,-0.64767 -3.97849,-0.87036 -3.92808,-1.08173 -3.86847,-1.27952 -3.80122,-1.46186 -4.64793,-2.05804 -4.52547,-2.28206 -4.39898,-2.47104 -5.1116,-3.16683 -4.93468,-3.33542 -5.54801,-4.04138 -6.09286,-4.74345 -6.58388,-5.42108 -7.72993,-6.68069 -8.11872,-7.33402 -7.85943,-7.41034 -7.65091,-7.53771 -7.48937,-7.71531 -7.37967,-7.93957 -7.31704,-8.21947 -6.06011,-7.12056 -5.397806,-6.67406 -4.701275,-6.18818 -3.979062,-5.64242 -3.257559,-5.02209 -2.567944,-4.32272 -2.399625,-4.44981 -2.196662,-4.57516 -1.958671,-4.69488 -1.372718,-3.8357 -1.182456,-3.89933 -0.977611,-3.95452 -0.760265,-3.99985 -0.532926,-4.03411 -0.298437,-4.05638 -0.06738,-3.04933 v 0"
           style="fill:none;stroke:#1f77b4;stroke-width:1.5;stroke-linecap:square;stroke-linejoin:round;stroke-miterlimit:10;stroke-dasharray:none;stroke-opacity:0.5"
           id="path1373" /></g></g><g
       id="g1375"
       transform="matrix(0.35277776,0,0,-0.35277778,371.42136,285.24201)"><g
         id="g1377"
         clip-path="url(#clipPath1381)"><path
           d="m 93.066144,400.2372 0.119956,-10.7447 0.356738,-10.81383 0.59599,-10.95539 0.788675,-10.22515 0.874736,-8.52036 1.017805,-7.68784 1.137981,-6.79647 1.207592,-5.85314 1.201953,-4.87549 1.406,-4.85106 1.63366,-4.80159 1.8827,-4.72392 1.69767,-3.70274 1.87573,-3.61728 2.05875,-3.51551 2.24427,-3.39776 2.42968,-3.26484 2.61235,-3.11802 2.7896,-2.95893 2.95893,-2.7896 3.11802,-2.61235 3.26484,-2.42968 3.39776,-2.24427 3.51551,-2.05875 3.61728,-1.87573 3.70274,-1.69767 4.72392,-1.8827 4.80159,-1.63366 4.85106,-1.406 4.87549,-1.20195 5.85314,-1.2076 6.79647,-1.13798 6.73244,-0.90447 8.5361,-0.90244 9.32014,-0.74986 10.07734,-0.59447 10.84235,-0.41553 10.75538,-0.17961 10.73832,0.06 10.78987,0.29795 10.91317,0.53459 10.17266,0.71945 8.47301,0.79733 7.64929,0.92407 6.77199,1.03086 5.8441,1.09421 5.85493,1.3315 4.86364,1.32146 4.82461,1.53989 4.75854,1.78071 3.73936,1.61117 3.66206,1.78594 3.56842,1.96678 3.45859,2.15135 3.33313,2.33715 3.19307,2.52153 3.03989,2.70181 2.87541,2.87541 2.70181,3.03989 2.52153,3.19307 2.33715,3.33313 2.15135,3.45859 1.96678,3.56842 1.78594,3.66206 1.61117,3.73936 1.78071,4.75854 1.53989,4.82461 1.32146,4.86364 1.3315,5.85493 1.09421,5.8441 1.03086,6.77199 0.92407,7.64929 0.79733,8.47301 0.71945,10.17266 0.53459,10.91317 0.29795,10.78987 0.06,10.73832 -0.1796,10.75538 -0.41553,10.84235 -0.59447,10.07734 -0.74986,9.32014 -0.90244,8.5361 -1.0514,7.70001 -1.17617,6.80342 -1.24772,5.8546 -1.24081,4.87243 -1.4497,4.84328 -1.68185,4.7884 -1.93479,4.70477 -1.74159,3.68291 -1.92112,3.59337 -2.105,3.48754 -2.29073,3.36591 -2.47571,3.22938 -2.65727,3.07932 -2.83277,2.91748 -2.99975,2.74593 -3.15594,2.56709 -3.29944,2.38348 -3.42865,2.19779 -3.54247,2.01267 -3.64019,1.83066 -3.72155,1.65418 -4.74183,1.83133 -4.81366,1.58633 -4.85783,1.36326 -5.85374,1.37516 -5.84785,1.13085 -6.78071,1.06535 -7.66244,0.95417 -8.48879,0.82223 -10.18984,0.74192 -10.92674,0.55486 -10.79736,0.31756 -10.73997,0.08 -10.75134,-0.15976 -10.83233,-0.39591 -10.98597,-0.63811 -9.32014,-0.74986 -8.5361,-0.90244 -7.70001,-1.0514 -6.80342,-1.17617 -5.8546,-1.24772 -4.87243,-1.24081 -4.84328,-1.4497 -4.7884,-1.68185 -4.70477,-1.93479 -3.68291,-1.74159 -3.59337,-1.92112 -3.48754,-2.10499 -3.36591,-2.29074 -3.22938,-2.47571 -3.07932,-2.65727 -2.91748,-2.83277 -2.74593,-2.99975 -2.56709,-3.15594 -2.38348,-3.29944 -2.19779,-3.42865 -2.01267,-3.54247 -1.83066,-3.64019 -1.65418,-3.72155 -1.83133,-4.74183 -1.58633,-4.81366 -1.36326,-4.85783 -1.375157,-5.85374 -1.130851,-5.84785 -1.065348,-6.78071 -0.954176,-7.66244 -0.822227,-8.48879 -0.741926,-10.18984 -0.554859,-10.92674 -0.317559,-10.79736 -0.08338,-8.95102 v 0"
           style="fill:none;stroke:#ff7f0e;stroke-width:1.5;stroke-linecap:square;stroke-linejoin:round;stroke-miterlimit:10;stroke-dasharray:none;stroke-opacity:0.5"
           id="path1383" /></g></g><g
       id="g1385"
       transform="matrix(0.35277776,0,0,-0.35277778,371.42136,285.24201)"><g
         id="g1387"
         clip-path="url(#clipPath1391)"><path
           d="m 88.092724,400.2372 -0.113707,-7.41754 -0.423739,-10.31921 -0.344659,-9.5721 4.11e-4,-5.82023 0.213209,-4.87029 0.352191,-3.89147 0.542476,-3.87035 0.754619,-3.83198 0.982924,-3.77575 1.220832,-3.70201 1.461271,-3.6122 1.697061,-3.50864 1.921311,-3.3946 2.127809,-3.27392 2.311357,-3.15093 2.46801,-3.03008 3.26041,-3.62797 4.09152,-4.14878 4.8973,-4.62425 13.75533,-12.78273 5.21864,-5.25951 5.73665,-6.12907 10.38,-11.19236 4.14878,-4.09152 3.62797,-3.26041 3.03008,-2.46801 3.15093,-2.31136 3.27392,-2.12781 3.3946,-1.92131 3.50864,-1.69706 3.6122,-1.46127 3.70201,-1.22083 3.77575,-0.98292 3.83198,-0.75462 3.87035,-0.54248 3.89147,-0.35219 4.87029,-0.21321 5.82023,-4.1e-4 7.67289,0.25885 15.00452,0.57787 7.40917,0.0289 7.43559,-0.1917 20.00037,-0.70267 4.86275,0.0873 4.87027,0.30889 3.88299,0.44428 3.85339,0.64615 3.8061,0.86715 3.741,1.10111 3.65899,1.34118 3.56195,1.58019 3.45271,1.81104 3.33483,2.02713 3.21243,2.22273 3.08996,2.39324 3.69726,3.18797 3.53065,3.3512 4.05444,4.15461 6.46812,7.01583 7.64317,8.21554 5.21864,5.25951 5.39331,5.1222 14.63925,13.64553 3.37673,3.50025 3.22538,3.66222 2.43153,3.05985 2.26786,3.18165 2.07815,3.30448 1.86669,3.42389 1.63893,3.53566 1.40132,3.63605 1.16084,3.72202 0.92468,3.79148 0.69983,3.84324 0.49265,3.87721 0.36012,4.86859 0.12689,4.86621 -0.0708,5.80467 -0.38729,9.53459 -0.40472,11.21381 -0.0289,7.40916 0.1917,7.43559 0.70266,20.00037 -0.0873,4.86275 -0.30889,4.87027 -0.44429,3.88299 -0.64614,3.85339 -0.86715,3.8061 -1.10111,3.741 -1.34119,3.65899 -1.58019,3.56195 -1.81103,3.45271 -2.02713,3.33483 -2.22273,3.21243 -2.39324,3.08996 -3.18797,3.69726 -3.3512,3.53065 -4.15461,4.05444 -7.01583,6.46812 -8.21554,7.64317 -5.25951,5.21864 -5.1222,5.39331 -13.64553,14.63925 -3.50025,3.37673 -3.66222,3.22538 -3.05985,2.43153 -3.18165,2.26786 -3.30448,2.07815 -3.4239,1.86669 -3.53565,1.63893 -3.63605,1.40132 -3.72203,1.16084 -3.79147,0.92468 -3.84325,0.69983 -3.8772,0.49265 -4.86859,0.36012 -4.86621,0.12689 -5.80467,-0.0708 -9.53459,-0.38729 -11.21381,-0.40472 -7.40916,-0.0289 -7.4356,0.1917 -20.00036,0.70266 -4.86275,-0.0873 -4.87027,-0.30889 -3.88299,-0.44429 -3.85339,-0.64614 -3.8061,-0.86715 -3.741,-1.10111 -3.65899,-1.34119 -3.56195,-1.58019 -3.45271,-1.81103 -3.33483,-2.02713 -3.21243,-2.22273 -3.08996,-2.39324 -3.69726,-3.18797 -3.53065,-3.3512 -4.05444,-4.15461 -6.46812,-7.01583 -7.64317,-8.21554 -5.21864,-5.25951 -5.39331,-5.1222 -14.63925,-13.64553 -3.37673,-3.50025 -3.22538,-3.66222 -2.43153,-3.05985 -2.267861,-3.18165 -2.078154,-3.30448 -1.866684,-3.4239 -1.638935,-3.53565 -1.401319,-3.63605 -1.160836,-3.72202 -0.92468,-3.79148 -0.699828,-3.84325 -0.492656,-3.8772 -0.360118,-4.86859 -0.126891,-4.86621 0.07083,-5.80467 0.387287,-9.53459 0.404725,-11.21381 0.04538,-4.63143 v 0"
           style="fill:none;stroke:#2ca02c;stroke-width:1.5;stroke-linecap:square;stroke-linejoin:round;stroke-miterlimit:10;stroke-dasharray:none;stroke-opacity:0.5"
           id="path1393" /></g></g><g
       id="g1395"
       transform="matrix(0.35277776,0,0,-0.35277778,371.42136,285.24201)"><g
         id="g1397"
         transform="translate(160.922,584.2392)"><text
           xml:space="preserve"
           transform="scale(1,-1)"
           style="font-variant:normal;font-weight:normal;font-size:12px;font-family:'DejaVu Sans';-inkscape-font-specification:DejaVuSans;writing-mode:lr-tb;fill:#000000;fill-opacity:1;fill-rule:nonzero;stroke:none"
           id="text1401"><tspan
             x="0 7.0328751 11.714875 19.058874 26.678875 34.286877 40.886875 45.590874 49.406876 54.110874 61.466873 67.992996 75.373001 81.625 85.441002 93.072998 96.889 104.521 112.153 119.785 127.417 135.049 142.681"
             y="0"
             sodipodi:role="line"
             id="tspan1399">Product takes 0.000402s</tspan></text></g><path
         d="m 359.424,525.2392 h 47 c 1.33333,0 2,0.66667 2,2 v 44 c 0,1.33333 -0.66667,2 -2,2 h -47 c -1.33333,0 -2,-0.66667 -2,-2 v -44 c 0,-1.33333 0.66667,-2 2,-2 z"
         style="fill:#ffffff;fill-opacity:0.8;fill-rule:nonzero;stroke:#cccccc;stroke-width:1;stroke-linecap:butt;stroke-linejoin:miter;stroke-miterlimit:10;stroke-dasharray:none;stroke-opacity:0.8"
         id="path1403" /><path
         d="m 361.424,564.81732 h 10 10"
         style="fill:none;stroke:#1f77b4;stroke-width:1.5;stroke-linecap:square;stroke-linejoin:round;stroke-miterlimit:10;stroke-dasharray:none;stroke-opacity:0.5"
         id="path1405" /><g
         id="g1407"
         transform="translate(389.424,561.31732)"><text
           xml:space="preserve"
           transform="matrix(1,0,0,-1,0,0.40625)"
           style="font-style:italic;font-variant:normal;font-size:10px;font-family:'DejaVu Sans';-inkscape-font-specification:DejaVuSans-Oblique;writing-mode:lr-tb;fill:#000000;fill-opacity:1;fill-rule:nonzero;stroke:none"
           id="text1411"><tspan
             x="0"
             y="0"
             id="tspan1409">f</tspan></text><text
           xml:space="preserve"
           transform="matrix(1,0,0,-1,3.5205078,-1.234375)"
           style="font-variant:normal;font-weight:normal;font-size:7px;font-family:'DejaVu Sans';-inkscape-font-specification:DejaVuSans;writing-mode:lr-tb;fill:#000000;fill-opacity:1;fill-rule:nonzero;stroke:none"
           id="text1415"><tspan
             x="0"
             y="0"
             id="tspan1413">1</tspan></text></g><path
         d="m 361.424,549.81732 h 10 10"
         style="fill:none;stroke:#ff7f0e;stroke-width:1.5;stroke-linecap:square;stroke-linejoin:round;stroke-miterlimit:10;stroke-dasharray:none;stroke-opacity:0.5"
         id="path1417" /><g
         id="g1419"
         transform="translate(389.424,546.31732)"><text
           xml:space="preserve"
           transform="matrix(1,0,0,-1,0,0.40625)"
           style="font-style:italic;font-variant:normal;font-size:10px;font-family:'DejaVu Sans';-inkscape-font-specification:DejaVuSans-Oblique;writing-mode:lr-tb;fill:#000000;fill-opacity:1;fill-rule:nonzero;stroke:none"
           id="text1423"><tspan
             x="0"
             y="0"
             id="tspan1421">f</tspan></text><text
           xml:space="preserve"
           transform="matrix(1,0,0,-1,3.5205078,-1.234375)"
           style="font-variant:normal;font-weight:normal;font-size:7px;font-family:'DejaVu Sans';-inkscape-font-specification:DejaVuSans;writing-mode:lr-tb;fill:#000000;fill-opacity:1;fill-rule:nonzero;stroke:none"
           id="text1427"><tspan
             x="0"
             y="0"
             id="tspan1425">2</tspan></text></g><path
         d="m 361.424,534.81732 h 10 10"
         style="fill:none;stroke:#2ca02c;stroke-width:1.5;stroke-linecap:square;stroke-linejoin:round;stroke-miterlimit:10;stroke-dasharray:none;stroke-opacity:0.5"
         id="path1429" /><g
         id="g1431"
         transform="translate(389.424,531.31732)"><text
           xml:space="preserve"
           transform="matrix(1,0,0,-1,0,0.40625)"
           style="font-style:italic;font-variant:normal;font-size:10px;font-family:'DejaVu Sans';-inkscape-font-specification:DejaVuSans-Oblique;writing-mode:lr-tb;fill:#000000;fill-opacity:1;fill-rule:nonzero;stroke:none"
           id="text1435"><tspan
             x="0"
             y="0"
             id="tspan1433">f</tspan></text><text
           xml:space="preserve"
           transform="matrix(1,0,0,-1,3.5205078,-1.234375)"
           style="font-variant:normal;font-weight:normal;font-size:7px;font-family:'DejaVu Sans';-inkscape-font-specification:DejaVuSans;writing-mode:lr-tb;fill:#000000;fill-opacity:1;fill-rule:nonzero;stroke:none"
           id="text1439"><tspan
             x="0"
             y="0"
             id="tspan1437">1</tspan></text><text
           xml:space="preserve"
           transform="matrix(1,0,0,-1,8.2475586,0.40625)"
           style="font-variant:normal;font-weight:normal;font-size:10px;font-family:'DejaVu Sans';-inkscape-font-specification:DejaVuSans;writing-mode:lr-tb;fill:#000000;fill-opacity:1;fill-rule:nonzero;stroke:none"
           id="text1443"><tspan
             x="0"
             y="0"
             id="tspan1441">2</tspan></text></g></g></g></svg>
